<?xml version="1.0" encoding="UTF-8"?><svg id="b" xmlns="http://www.w3.org/2000/svg" viewBox="0 0 1468.64 810.16"><g id="c"><rect x="324.35" width="121.3" height="121.3" style="fill:#21d2f2;"/><rect x="621.05" width="121.3" height="121.3" style="fill:#72ffff;"/><rect x="501.39" width="119.66" height="121.3" style="fill:#caffff;"/><rect x="742.35" width="121.3" height="121.3" style="fill:#54efff;"/><rect x="863.65" width="121.3" height="121.3" style="fill:#30d8f8;"/><rect x="984.95" width="119.66" height="121.3" style="fill:#00c2e2;"/><rect x="1104.62" width="121.3" height="121.3" style="fill:#00accb;"/><rect x="1225.92" width="121.3" height="121.3" style="fill:#007a99;"/><rect x="324.35" y="336.04" width="121.3" height="119.66" style="fill:#87cbba;"/><rect x="324.35" y="168.84" width="121.3" height="119.66" style="fill:#4be337;"/><rect x="619.41" y="336.04" width="121.3" height="119.66" style="fill:#bcffef;"/><rect x="498.11" y="336.04" width="121.3" height="119.66" style="fill:#defff7;"/><rect x="619.41" y="168.84" width="121.3" height="119.66" style="fill:#81ff66;"/><rect x="498.11" y="168.84" width="121.3" height="119.66" style="fill:#bfffb1;"/><rect x="740.71" y="336.04" width="121.3" height="119.66" style="fill:#a5ead9;"/><rect x="740.71" y="168.84" width="121.3" height="119.66" style="fill:#67fa4f;"/><rect x="862.01" y="336.04" width="119.66" height="119.66" style="fill:#8fd4c2;"/><rect x="862.01" y="168.84" width="119.66" height="119.66" style="fill:#4be337;"/><rect x="981.68" y="336.04" width="121.3" height="119.66" style="fill:#7abdad;"/><rect x="981.68" y="168.84" width="121.3" height="119.66" style="fill:#27cc1a;"/><rect x="1102.98" y="336.04" width="121.3" height="119.66" style="fill:#64a797;"/><rect x="1102.98" y="168.84" width="121.3" height="119.66" style="fill:#00b500;"/><rect x="1224.28" y="336.04" width="121.3" height="119.66" style="fill:#00856c;"/><rect x="1224.28" y="168.84" width="121.3" height="119.66" style="fill:#008500;"/><rect x="324.35" y="503.24" width="121.3" height="119.66" style="fill:#ff9100;"/><rect x="324.04" y="690.5" width="121.3" height="119.66" style="fill:#fff;"/><rect x="1347.34" width="121.3" height="121.3" style="fill:#004e62;"/><rect x="1345.7" y="336.04" width="121.3" height="119.66" style="fill:#004236;"/><rect x="1345.7" y="168.84" width="121.3" height="119.66" style="fill:#004a00;"/><rect x="619.41" y="690.11" width="121.3" height="119.66" style="fill:#bcbcbc;"/><rect x="498.11" y="690.11" width="121.3" height="119.66" style="fill:#eaeaea;"/><rect x="1345.61" y="690.13" width="121.3" height="119.66"/><rect x="740.71" y="690.11" width="121.3" height="119.66" style="fill:#9b9b9b;"/><rect x="862.01" y="690.11" width="119.66" height="119.66" style="fill:#7b7b7b;"/><rect x="981.68" y="690.11" width="121.3" height="119.66" style="fill:#5a5a5a;"/><rect x="1102.98" y="690.11" width="121.3" height="119.66" style="fill:#3e3e3e;"/><rect x="1224.28" y="690.11" width="121.3" height="119.66" style="fill:#242424;"/><rect x="619.41" y="504.88" width="121.3" height="119.66" style="fill:#ffd75b;"/><rect x="498.11" y="504.88" width="121.3" height="119.66" style="fill:#ffebae;"/><rect x="740.71" y="504.88" width="121.3" height="119.66" style="fill:#ffc044;"/><rect x="862.01" y="504.88" width="119.66" height="119.66" style="fill:#ffaa2c;"/><rect x="981.68" y="504.88" width="121.3" height="119.66" style="fill:#ff950a;"/><rect x="1102.98" y="504.88" width="121.3" height="119.66" style="fill:#ea8000;"/><rect x="1224.28" y="504.88" width="121.3" height="119.66" style="fill:#b05200;"/><rect x="1345.7" y="504.88" width="121.3" height="119.66" style="fill:#713500;"/><text transform="translate(72.14 76.4)" style="font-family:WorkSans-Medium, &apos;Work Sans&apos;; font-size:52.2px; font-weight:500;"><tspan x="0" y="0">Primario</tspan></text><text transform="translate(0 241.57)" style="font-family:WorkSans-Medium, &apos;Work Sans&apos;; font-size:52.2px; font-weight:500;"><tspan x="0" y="0">Secundario</tspan></text><text transform="translate(95.73 411.21)" style="font-family:WorkSans-Medium, &apos;Work Sans&apos;; font-size:52.2px; font-weight:500;"><tspan x="0" y="0" style="letter-spacing:0em;">A</tspan><tspan x="34.35" y="0">uxilia</tspan><tspan x="169.95" y="0" style="letter-spacing:-.02em;">r</tspan></text><text transform="translate(108.2 577.88)" style="font-family:WorkSans-Medium, &apos;Work Sans&apos;; font-size:52.2px; font-weight:500;"><tspan x="0" y="0" style="letter-spacing:-.01em;">A</tspan><tspan x="34.14" y="0">ce</tspan><tspan x="93.64" y="0" style="letter-spacing:0em;">n</tspan><tspan x="125.64" y="0">to</tspan></text><text transform="translate(12.53 763.89)" style="font-family:WorkSans-Medium, &apos;Work Sans&apos;; font-size:52.2px; font-weight:500;"><tspan x="0" y="0">G</tspan><tspan x="37.79" y="0" style="letter-spacing:-.01em;">r</tspan><tspan x="58.83" y="0" style="letter-spacing:-.03em;">a</tspan><tspan x="87.01" y="0" style="letter-spacing:-.01em;">y</tspan><tspan x="114.05" y="0" style="letter-spacing:0em;">s</tspan><tspan x="141.61" y="0">cales</tspan></text></g></svg>