<svg width="518" height="158" viewBox="0 0 518 158" fill="none" xmlns="http://www.w3.org/2000/svg">
<path d="M338.209 113.293L349.164 86.0752H371.135L378.913 111.354L386.691 86.0752H398.949L406.728 111.354L414.506 86.0752H426.696V87.5186L412.939 127.979L412.605 128.868H400.905L400.526 127.969L392.82 102.786L385.114 127.969L384.797 128.868H372.927L372.7 127.979L360.117 90.9707L337.349 145.182H324.963V143.713L325.018 143.585L331.597 128.181L315.42 87.5361V86.0752H327.821L338.209 113.293ZM256.173 84.7705C262.284 84.7705 267.174 86.4962 270.756 90.0186C274.401 93.5498 276.184 98.5041 276.184 104.78V128.868H265.283V124.943C263.879 126.265 262.276 127.386 260.479 128.305L260.468 128.311C257.918 129.557 255.068 130.174 251.932 130.174C249.016 130.174 246.383 129.612 244.049 128.474L244.045 128.473L244.042 128.471C241.763 127.331 239.955 125.727 238.636 123.661C237.31 121.586 236.652 119.228 236.652 116.607C236.652 112.413 238.079 109.033 240.967 106.55C243.887 104.031 248.068 102.589 253.423 102.147L263.977 101.236C263.682 99.8226 262.992 98.6195 261.909 97.6084C260.419 96.2179 258.525 95.5078 256.173 95.5078C253.952 95.5079 252.245 96.0739 250.983 97.1416L250.972 97.1514C249.649 98.2197 248.917 99.3673 248.683 100.586L248.576 101.136H247.049L237.011 99.0225L237.158 98.3535C238.011 94.4898 240.117 91.2567 243.439 88.666L243.441 88.6641L243.443 88.6631C246.847 86.0536 251.107 84.7706 256.173 84.7705ZM297.497 84.7705C302.012 84.7706 305.877 85.8866 309.055 88.1523L309.355 88.3623C312.429 90.5648 314.46 93.5998 315.446 97.4336L315.621 98.1143L305.503 100.333L305.369 100.309L304.055 100.07L303.94 99.6611C303.616 98.5039 302.825 97.5184 301.474 96.7178L301.47 96.7148L301.465 96.7119C300.167 95.9131 298.687 95.5079 297.008 95.5078C295.463 95.5078 294.193 95.7901 293.172 96.3223C292.266 96.8213 291.895 97.4552 291.895 98.2549C291.895 98.7451 292.094 99.2603 292.592 99.8115C293.088 100.257 293.857 100.63 294.96 100.885L295.188 100.936L295.195 100.937L295.201 100.938L303.032 102.732L303.034 102.733C307.276 103.725 310.574 105.2 312.863 107.2L313.08 107.39C315.286 109.374 316.364 112.094 316.364 115.466C316.364 118.423 315.565 121.039 313.953 123.284C312.351 125.516 310.154 127.221 307.389 128.406C304.626 129.59 301.487 130.174 297.986 130.174C293.258 130.174 289.156 129.088 285.712 126.886L285.701 126.879C282.309 124.617 280.035 121.549 278.901 117.696L278.702 117.02L289.584 114.277L291.108 114.658L291.216 115.035C291.601 116.383 292.411 117.441 293.683 118.227L293.81 118.301C295.132 119.053 296.655 119.437 298.395 119.437C300.156 119.436 301.58 119.101 302.703 118.468C303.795 117.799 304.241 117.019 304.241 116.118C304.241 115.277 303.944 114.665 303.358 114.205C302.713 113.698 301.686 113.265 300.21 112.948L300.207 112.947L292.376 111.234L292.372 111.233C288.429 110.345 285.311 108.832 283.075 106.653L283.069 106.646L283.063 106.641C280.87 104.389 279.771 101.634 279.771 98.418C279.771 95.7577 280.499 93.417 281.97 91.4258L282.114 91.2334C283.663 89.1717 285.775 87.5825 288.422 86.4561L288.427 86.4541C291.131 85.3273 294.159 84.7705 297.497 84.7705ZM447.1 84.7705C451.393 84.7705 455.163 85.7475 458.385 87.7256C461.597 89.698 464.101 92.4595 465.895 95.9902C467.691 99.5275 468.578 103.634 468.578 108.288V110.526L466.957 112.147H437.698C437.925 112.945 438.26 113.714 438.702 114.453C439.677 115.937 440.93 117.139 442.468 118.062C444.049 118.98 445.752 119.436 447.589 119.437C449.187 119.437 450.749 118.964 452.284 117.992C453.814 117.023 455.012 115.725 455.882 114.087L456.183 113.438L457.595 113.727L457.72 113.779L467.176 117.72L466.886 118.357C465.148 122.169 462.585 125.105 459.199 127.138C455.87 129.169 451.991 130.174 447.589 130.174C443.14 130.174 439.19 129.227 435.758 127.314L435.754 127.312C432.382 125.402 429.737 122.728 427.828 119.304C425.915 115.872 424.97 111.92 424.97 107.472C424.97 103.027 425.887 99.0787 427.742 95.6484L427.745 95.6445L427.747 95.6406C429.654 92.2196 432.269 89.5464 435.586 87.6348L435.899 87.458C439.152 85.6601 442.893 84.7706 447.1 84.7705ZM485.247 68.5703L485.29 68.6855V88.9326C486.276 88.1433 487.358 87.435 488.534 86.8076C491.092 85.4434 494.005 84.7706 497.255 84.7705C501.175 84.7705 504.698 85.7513 507.803 87.7236L508.097 87.9053C511.113 89.8076 513.491 92.424 515.229 95.7373C517.083 99.166 517.999 103.112 517.999 107.554C517.999 111.945 517.081 115.864 515.228 119.292C513.433 122.656 510.959 125.329 507.811 127.297L507.808 127.299C504.701 129.219 501.177 130.174 497.255 130.174C494.01 130.174 491.101 129.53 488.545 128.224L488.534 128.218C487.024 127.413 485.67 126.484 484.475 125.431V128.869H472.922V68.8604L484.815 67.4189L485.247 68.5703ZM251.668 129.494L251.932 129.495C251.796 129.495 251.661 129.493 251.526 129.49C251.573 129.491 251.621 129.494 251.668 129.494ZM297.555 129.492L297.986 129.495L297.354 129.486C297.42 129.488 297.487 129.491 297.555 129.492ZM447.183 129.493L447.589 129.495C447.364 129.495 447.141 129.49 446.919 129.485C447.007 129.487 447.095 129.492 447.183 129.493ZM234.34 82.2119H206.688V93.335H231.894V105.132H206.688V117.071H234.34V128.868H194.32V70.415H234.34V82.2119ZM306.754 127.934C306.793 127.918 306.832 127.904 306.871 127.888L307.122 127.782C307 127.834 306.877 127.884 306.754 127.934ZM486.76 126.351C486.996 126.513 487.239 126.671 487.485 126.826C487.213 126.655 486.947 126.48 486.688 126.3L486.76 126.351ZM485.195 125.157C485.297 125.244 485.401 125.329 485.506 125.414C485.381 125.313 485.259 125.211 485.138 125.107L485.195 125.157ZM298.04 120.11L298.395 120.115C298.239 120.115 298.084 120.11 297.931 120.104C297.967 120.106 298.003 120.109 298.04 120.11ZM447.224 120.109L447.589 120.115C447.423 120.115 447.259 120.11 447.096 120.103C447.138 120.104 447.181 120.108 447.224 120.109ZM254.925 112.145C252.628 112.359 251.136 112.833 250.315 113.468C249.553 114.099 249.184 114.884 249.184 115.874C249.184 116.805 249.608 117.584 250.588 118.24C251.594 118.859 252.898 119.192 254.542 119.192C256.322 119.192 257.906 118.737 259.313 117.832L259.323 117.826C260.81 116.903 261.981 115.731 262.847 114.308C263.401 113.362 263.776 112.39 263.974 111.391L254.925 112.145ZM495.298 95.915C493.235 95.9151 491.429 96.404 489.86 97.3652C488.345 98.3273 487.151 99.6701 486.279 101.413L486.275 101.421C485.41 103.101 484.964 105.111 484.964 107.473C484.964 109.776 485.409 111.791 486.279 113.531C487.151 115.274 488.345 116.617 489.86 117.579L490.009 117.668C491.543 118.571 493.3 119.029 495.298 119.029C497.419 119.029 499.219 118.538 500.726 117.584C502.245 116.622 503.442 115.278 504.315 113.531C505.186 111.791 505.631 109.776 505.631 107.473C505.631 105.111 505.185 103.101 504.319 101.421L504.315 101.413C503.442 99.6668 502.245 98.3218 500.726 97.3594C499.219 96.4053 497.419 95.9151 495.298 95.915ZM293.091 118.651C293.171 118.705 293.253 118.759 293.337 118.811C293.351 118.819 293.366 118.827 293.381 118.836L293.337 118.81C293.253 118.758 293.171 118.705 293.091 118.651ZM490.48 118.685C490.557 118.721 490.635 118.754 490.712 118.788C490.624 118.749 490.536 118.71 490.449 118.669L490.48 118.685ZM453.602 117.887C453.648 117.85 453.693 117.812 453.739 117.774C453.694 117.812 453.648 117.85 453.602 117.887ZM206.01 117.75H206.011V104.454H206.01V117.75ZM237.364 115.532C237.36 115.599 237.357 115.666 237.354 115.733C237.358 115.655 237.362 115.576 237.367 115.498L237.364 115.532ZM517.313 108.124C517.315 108.068 517.318 108.011 517.318 107.955L517.321 107.554L517.313 108.124ZM303.477 103.539C303.408 103.522 303.34 103.504 303.271 103.487L302.88 103.394C303.081 103.441 303.28 103.49 303.477 103.539ZM252.99 102.866C252.892 102.876 252.795 102.887 252.698 102.897C252.956 102.871 253.217 102.845 253.481 102.823L252.99 102.866ZM437.072 102.025C437.006 102.259 436.949 102.498 436.898 102.741C436.952 102.483 437.014 102.23 437.085 101.982L437.072 102.025ZM447.345 95.5078C445.384 95.5078 443.652 95.945 442.133 96.8057L442.125 96.8105L442.117 96.8145C440.597 97.625 439.413 98.7584 438.553 100.223H438.554C438.227 100.795 437.964 101.408 437.768 102.062H456.232C456.019 101.322 455.718 100.633 455.33 99.9941L455.324 99.9863L455.32 99.9785C454.512 98.5649 453.408 97.4869 452 96.7324L451.987 96.7256L451.975 96.7178C450.62 95.915 449.082 95.5078 447.345 95.5078ZM280.452 98.7021C280.453 98.7461 280.456 98.7903 280.457 98.834C280.453 98.6964 280.449 98.5575 280.449 98.418L280.452 98.7021ZM428.174 96.2842C428.148 96.3341 428.124 96.3854 428.099 96.4355C428.174 96.2865 428.25 96.1372 428.329 95.9902L428.174 96.2842ZM301.563 95.9834C301.649 96.0323 301.735 96.0827 301.819 96.1348L301.82 96.1338C301.651 96.0295 301.478 95.9324 301.303 95.8408L301.563 95.9834ZM452.06 95.9863C452.147 96.0344 452.234 96.0837 452.32 96.1348V96.1338C452.148 96.0318 451.973 95.9363 451.796 95.8467L452.06 95.9863ZM282.9 91.3281C282.816 91.4333 282.732 91.5394 282.651 91.6475C282.468 91.8852 282.296 92.1292 282.136 92.3779C282.296 92.1293 282.468 91.886 282.651 91.6484C282.733 91.5403 282.816 91.4337 282.9 91.3281ZM484.612 90.4189V90.4209C484.637 90.3979 484.661 90.3744 484.686 90.3516C484.661 90.3741 484.636 90.3963 484.612 90.4189ZM269.259 89.5801C269.168 89.5044 269.076 89.429 268.983 89.3555L268.939 89.3213C269.047 89.406 269.153 89.4926 269.259 89.5801ZM458.457 88.5762C458.411 88.546 458.365 88.5142 458.318 88.4844L458.03 88.3037L458.457 88.5762ZM288.449 87.1836C288.41 87.2009 288.371 87.2188 288.332 87.2363C288.449 87.1835 288.568 87.131 288.688 87.0801L288.449 87.1836ZM298.129 85.459C298.056 85.4572 297.982 85.4533 297.908 85.4521L297.497 85.4492L298.129 85.459Z" fill="#444444"/>
<path d="M338.248 88.0923C337.969 88.327 337.554 88.2992 337.309 88.0293L328.424 78.2489C328.161 77.9588 328.197 77.5065 328.503 77.2623L333.528 73.2585C333.8 73.0417 334.193 73.066 334.436 73.3148L338.832 77.8102C338.839 77.8171 338.845 77.8245 338.85 77.8325L338.851 77.8342C338.895 77.9007 338.984 77.9217 339.053 77.8823C339.068 77.8737 339.082 77.8625 339.094 77.8492L352.483 62.3299C352.758 62.0118 353.252 62.0171 353.52 62.3411L359.387 69.4471C359.624 69.7344 359.585 70.1591 359.3 70.3985L346.011 81.5503L340.756 85.9822L338.248 88.0923Z" fill="#21D2F2"/>
<g clip-path="url(#clip0_1846_2203)">
<path d="M134.134 152.747C134.101 152.713 134.054 152.703 134.007 152.713C133.987 152.72 133.967 152.723 133.947 152.73C133.89 152.743 133.847 152.79 133.833 152.844C133.817 152.901 133.833 152.961 133.877 153.004C133.92 153.048 133.98 153.061 134.037 153.048C134.091 153.031 134.137 152.987 134.151 152.934C134.157 152.914 134.161 152.894 134.167 152.874C134.181 152.83 134.167 152.78 134.134 152.747Z" fill="#21D2F2"/>
<path d="M175.211 63.4688C175.465 63.1481 175.368 62.7538 174.984 62.6035C173.457 62.0021 171.87 61.6146 170.233 61.501C170.167 61.4976 170.1 61.4976 170.033 61.4943C170.11 61.1101 170.183 60.7259 170.25 60.3483C170.424 59.3561 170.524 58.3571 170.577 57.3515C170.624 56.4561 170.658 55.5406 170.44 54.6686C170.464 54.6119 170.487 54.5584 170.511 54.5016C170.614 54.2377 170.3 53.9437 170.043 54.0339C169.949 54.0673 169.856 54.1007 169.766 54.1341C169.742 54.1341 169.722 54.1341 169.699 54.1408C169.679 54.1475 169.662 54.1575 169.645 54.1642C169.609 54.1475 169.572 54.1374 169.532 54.1374C169.001 54.1642 168.439 54.4314 167.941 54.6119C167.454 54.7889 166.979 55.0027 166.505 55.2166C166.094 55.4037 165.686 55.6008 165.282 55.8046C164.804 55.9917 164.33 56.1821 163.852 56.3692C163.618 56.4628 163.378 56.5496 163.14 56.6432C163.037 56.1086 162.9 55.5807 162.743 55.0629C162.522 54.3345 162.275 53.6129 161.981 52.9146C161.714 52.2765 161.403 51.468 160.782 51.1138C160.631 51.027 160.471 51.0804 160.367 51.2007C160.324 51.184 160.271 51.1907 160.22 51.2274C158.052 52.9514 156.218 55.1498 155.005 57.6488C154.106 57.9528 153.211 58.2836 152.326 58.6244C148.276 60.1913 144.374 62.1257 140.679 64.401C140.672 64.3809 140.666 64.3575 140.662 64.3375C139.717 61.2237 138.561 58.18 137.238 55.2066C135.968 52.36 134.445 49.6438 132.821 46.9844C131.201 44.3316 129.627 41.6622 127.813 39.1364C126.8 37.7231 125.745 36.34 124.605 35.027C124.054 34.3922 123.48 33.724 122.858 33.1092C121.278 31.128 119.581 29.2404 117.74 27.4964C116.196 26.0364 114.606 24.6365 112.882 23.3869C112.21 22.8992 111.522 22.4381 110.824 21.9938C111.545 20.9246 112.367 19.919 113.236 18.9668C113.343 18.9368 113.453 18.91 113.56 18.8766C113.747 18.8232 113.747 18.616 113.63 18.5158C113.684 18.3554 113.51 18.1449 113.35 18.2686C113.276 18.3253 113.209 18.3855 113.136 18.4423C112.067 18.4089 110.978 18.6394 109.952 18.92C109.083 19.1573 108.231 19.5014 107.419 19.9023C107.934 18.1516 108.619 16.4511 109.497 14.8307C109.608 14.7505 109.721 14.6736 109.828 14.5868C109.928 14.5066 109.815 14.3696 109.715 14.3897C108.642 14.6035 107.667 15.1915 106.744 15.7695C105.806 16.3575 104.94 17.0925 104.145 17.8643C103.761 18.2351 103.397 18.6227 103.046 19.0203C103.036 18.9601 103.026 18.9 103.013 18.8432C102.892 18.2084 102.745 17.577 102.578 16.9522C102.221 15.6359 101.763 14.3329 101.195 13.0934C100.637 11.8772 99.9556 10.7112 99.2039 9.60536C98.8364 9.06412 98.4622 8.49615 98.0078 8.02507C97.5868 7.59075 97.1458 7.17646 96.6948 6.77554C96.6948 6.7722 96.6948 6.76552 96.6915 6.76218C96.5946 6.53165 96.2104 6.45815 96.1469 6.76218C96.0634 7.1631 96.1368 7.59075 96.1636 7.99501C96.187 8.38256 96.207 8.76677 96.2337 9.15433C96.2905 9.98289 96.3774 10.8115 96.4509 11.6367C96.4877 12.061 96.5244 12.4886 96.5612 12.9129C96.3741 12.7593 96.1803 12.6123 95.9865 12.4653C94.3026 11.199 92.5252 10.033 90.7612 8.88371C87.1563 6.53165 83.3943 4.42349 79.5054 2.57258C78.4129 2.05138 77.3137 1.55357 76.2012 1.07581C75.6399 0.835261 75.0853 0.614756 74.5006 0.431001C73.9259 0.250587 73.3446 0.0133772 72.7432 -0.0100098C72.7031 -0.0100098 72.6664 -0.00332778 72.633 0.0100362C72.5862 0.0200592 72.5461 0.0467871 72.5194 0.086879C72.3991 0.210496 72.3657 0.424319 72.5127 0.551277C72.7566 0.7651 73.0272 0.918786 73.3079 1.06245C74.5073 2.23848 75.6532 3.4546 76.6689 4.80102C76.9863 5.22198 77.297 5.64963 77.5943 6.0873C76.4016 5.69306 75.1888 5.37233 73.956 5.12843C71.2866 4.59722 68.5636 4.42683 65.8508 4.63063C65.0924 4.68742 64.334 4.77429 63.5822 4.88788C62.8205 5.00148 62.0253 5.09837 61.3104 5.38235C61.0698 5.47924 61.0765 5.87682 61.3772 5.86679C61.6478 5.85677 61.9151 5.82336 62.1824 5.78661C63.9731 6.91586 65.6503 8.26563 67.1437 9.76573C68.0592 10.6845 68.8777 11.6868 69.6528 12.7192C69.2953 12.5822 68.9378 12.4552 68.587 12.3416C67.3208 11.9273 66.0212 11.6166 64.7048 11.4162C63.3918 11.2157 62.0621 11.1088 60.7324 11.1155C60.0541 11.1188 59.3759 11.1689 58.701 11.2458C58.1063 11.3126 57.3279 11.3126 56.8 11.6033C56.7232 11.6467 56.6797 11.7169 56.6564 11.7937C56.633 11.7971 56.6096 11.8004 56.5862 11.8037C56.4659 11.8305 56.4258 11.9975 56.5127 12.0777C56.8234 12.365 57.2611 12.5154 57.6587 12.6557C58.1264 12.8227 58.5874 13.0031 59.0418 13.2003C59.9038 13.5778 60.7524 14.0121 61.5676 14.4765C62.6601 15.1013 63.6925 15.8196 64.658 16.6248C64.1669 16.9054 63.6791 17.1961 63.2047 17.5068C62.2124 18.155 61.2502 18.8499 60.3214 19.5849C58.4772 21.0449 56.6998 22.6553 55.2899 24.5463C55.1963 24.6699 55.2197 24.7968 55.2899 24.8937C55.0928 25.0107 54.9324 25.1543 54.8689 25.3414C54.8556 25.3782 54.8756 25.4283 54.9124 25.4483C55.3768 25.6822 56.1285 25.2646 56.5829 25.1176C57.2477 24.9004 57.9226 24.7 58.5941 24.4995C59.8904 24.1153 61.2068 23.7912 62.5332 23.5306C62.9341 23.4504 63.3383 23.3803 63.7426 23.3101C49.1692 32.4978 38.1038 46.9376 33.0923 63.4621C32.942 63.6292 35.2439 53.9269 32.7816 64.1404C29.5442 61.0967 25.2911 57.3448 20.8042 54.9794C20.7741 54.9627 20.744 54.9526 20.714 54.9393C20.5402 53.673 20.2963 52.4135 19.9756 51.174C19.8119 50.5425 19.6315 49.9144 19.431 49.293C19.3475 49.0324 19.2573 48.7484 19.117 48.5012C19.117 48.4912 19.1136 48.4778 19.1103 48.4678C19.1003 48.4076 19.0568 48.3675 19.0067 48.3375C18.9132 48.2105 18.7996 48.1036 18.6559 48.0234C17.5734 47.4287 16.8919 49.1026 16.511 49.7941C16.2738 50.2285 16.0466 50.6728 15.8261 51.1172C15.6524 51.3644 15.482 51.615 15.3283 51.8756C15.2381 52.0293 15.1111 52.2297 15.0042 52.4402C13.9685 50.7664 12.7524 49.2228 11.3358 47.8463C10.6375 47.1681 9.42476 45.8718 8.4659 46.9209C8.09171 47.3318 8.03491 47.9265 7.94471 48.4511C7.82777 49.1226 7.74091 49.8042 7.69747 50.4857C7.63399 51.4446 7.69079 52.4202 7.86786 53.369C6.73861 52.644 5.50912 52.0994 4.18609 51.7252C3.70833 51.5883 3.13702 51.4045 2.67596 51.6918C2.255 51.9524 2.17481 52.4669 2.23161 52.9213C2.37861 54.074 2.7361 55.2333 3.127 56.3258C3.3475 56.9405 3.58471 57.5519 3.88206 58.1366C4.04243 58.4506 4.20279 58.7714 4.38321 59.0788C3.52123 59.1222 2.65592 59.1723 1.80396 59.2826C1.33957 59.3427 0.88185 59.4897 0.591183 59.8806C0.287153 60.2915 0.307199 60.8328 0.467567 61.2972C0.811689 62.3028 1.51664 63.2416 2.17147 64.0635C2.84635 64.9121 3.63483 65.6739 4.44001 66.4022C4.88102 66.7998 5.34876 67.2074 5.85993 67.5114C6.12052 67.6684 6.38446 67.8221 6.65842 67.9524C6.78872 68.0159 6.89897 68.0426 7.00589 68.046C7.35335 69.5728 7.86786 71.0495 8.32224 72.5463C8.79666 74.1099 9.29112 75.6601 9.84907 77.1936C10.397 78.6971 10.8981 80.2105 11.4695 81.7039C12.0909 83.331 12.7858 84.9013 13.581 86.4482C16.344 91.8305 19.8754 96.8921 24.1552 101.182C25.1074 102.137 26.103 103.05 27.1387 103.922C27.1354 104.189 27.1354 104.459 27.132 104.727C27.132 105.676 27.1521 106.624 27.1988 107.57C27.289 109.461 27.4695 111.349 27.7167 113.223C28.2212 117.022 29.2535 120.79 30.3828 124.445C32.521 131.364 35.4377 138.103 38.8656 144.478C39.4736 145.61 40.1218 146.723 40.7933 147.822C40.085 148.327 39.4335 148.905 38.8422 149.549C38.3611 150.074 37.9201 150.639 37.5258 151.233C37.1951 151.731 36.8543 152.262 36.6438 152.83C36.4333 152.964 36.3465 153.288 36.577 153.448C36.6672 153.625 36.881 153.716 37.0848 153.686C39.1963 154.651 41.3914 155.5 43.6098 156.178C45.9852 156.906 48.5043 157.294 50.9767 157.518C55.9848 157.969 61.0865 157.508 65.9309 156.151C68.5565 155.416 71.1012 154.409 73.5137 153.144C73.4213 152.777 73.4213 152.608 73.3646 152.219C73.2878 151.597 73.1742 150.986 73.084 150.368C72.9671 149.553 72.9504 148.724 73.0138 147.902C73.0773 147.107 73.2177 146.329 73.358 145.544C73.495 144.789 73.7823 144.1 74.1431 143.425C75.4394 141.003 77.8683 138.975 80.5545 138.284C83.7217 137.468 87.1496 137.635 90.3736 137.976C91.8971 138.137 93.4507 138.477 94.8339 139.156C96.1335 139.794 97.2193 140.706 98.1247 141.835C100.389 144.663 99.9727 148.611 99.4963 151.997C99.8733 152.269 100.043 152.269 100.326 152.373C100.564 152.583 100.834 152.75 101.132 152.9C101.345 153.011 101.573 153.101 101.79 153.208C102.097 153.362 102.364 153.545 102.689 153.679C103.724 154.103 104.777 154.518 105.852 154.835C106.962 155.162 108.108 155.506 109.25 155.694C109.785 155.784 110.329 155.814 110.867 155.837C111.445 155.861 112.023 155.978 112.598 156.044C117.168 156.589 121.712 156.743 126.279 156.064C127.529 155.877 128.782 155.657 130.008 155.346C130.623 155.189 131.231 155.022 131.839 154.838C132.427 154.665 133.051 154.447 133.526 154.056C133.559 154.03 133.573 153.996 133.576 153.963C133.623 153.94 133.673 153.919 133.72 153.896C133.853 153.833 133.984 153.772 134.121 153.722C134.207 153.689 134.308 153.662 134.388 153.615C134.488 153.555 134.525 153.468 134.565 153.368C134.632 153.208 134.491 153.041 134.351 152.994C134.224 152.951 134.117 152.977 134.01 153.027C133.86 152.763 133.593 152.523 133.399 152.329C133.072 152.005 132.737 151.691 132.387 151.394C131.708 150.816 130.917 150.341 130.141 149.9C129.978 149.807 129.804 149.72 129.634 149.626C130.035 149.229 130.415 148.811 130.793 148.393C131.658 147.438 132.433 146.392 133.168 145.333C134.635 143.218 135.888 140.96 136.96 138.621C137.869 136.637 138.648 134.588 139.316 132.507C139.523 132.013 139.727 131.515 139.924 131.01C141.12 127.927 142.196 124.729 142.844 121.482C142.867 121.365 142.887 121.248 142.911 121.131C143.793 117.603 144.414 114.005 144.788 110.386C145.146 106.938 145.396 103.46 145.189 99.9959C145.416 99.8355 145.644 99.6785 145.874 99.5181C147.013 98.7363 148.036 97.7975 149.048 96.8553C151.113 94.9376 153.054 92.8896 154.888 90.7547C158.58 86.4582 161.951 81.8743 164.941 77.06C165.319 76.4519 165.676 75.8372 166.01 75.2157C166.137 75.1823 166.268 75.1489 166.391 75.1088C167.153 74.8583 167.901 74.5509 168.626 74.2034C169.348 73.8593 170.05 73.4751 170.711 73.0274C171.413 72.553 172.027 71.9683 172.719 71.4772C172.899 71.3502 172.963 71.1431 172.859 70.9426C172.595 70.4381 171.951 70.0372 171.51 69.6897C171.072 69.3456 170.621 69.0149 170.157 68.7041C170.638 68.2965 171.112 67.8823 171.57 67.4479C172.883 66.2118 174.099 64.8787 175.215 63.4655L175.211 63.4688Z" fill="#21D2F2"/>
<path d="M80.2775 53.9001C77.0467 42.0195 60.2649 41.5117 51.849 47.7861C47.9701 50.6794 45.4643 55.7443 46.6103 60.4484C47.6527 64.7249 51.418 67.8855 55.5007 69.5326C63.078 72.5896 74.3606 71.6842 78.911 64.04C80.8087 60.8493 81.1728 57.1976 80.2775 53.9034V53.9001Z" fill="white"/>
<path d="M72.8538 64.5279C72.8538 64.5279 72.8571 64.5245 72.8604 64.5212C72.9139 64.4577 72.9874 64.4009 73.0609 64.3475C73.0609 64.3207 72.9841 64.3608 72.8538 64.5245V64.5279Z" fill="white"/>
<path d="M67.3543 47.2181C67.3009 47.2114 67.2507 47.2081 67.1973 47.2014C67.1839 47.2014 67.2173 47.2048 67.3577 47.2181H67.3543Z" fill="white"/>
<path d="M121.636 53.5394C118.071 45.9386 108.225 42.2469 100.41 44.9798C95.9032 46.5567 92.1546 50.4356 91.1958 55.113C90.0866 60.5187 92.8696 66.3154 97.4134 69.4425C104.784 74.5141 117.092 73.5319 121.599 65.0792C122.534 63.3218 123.059 61.3673 123.052 59.3694C123.045 57.3281 122.501 55.3736 121.639 53.5361L121.636 53.5394Z" fill="white"/>
<path d="M118.378 60.3583C118.378 60.3583 118.378 60.3383 118.381 60.3283C118.381 60.3116 118.381 60.2949 118.385 60.2815C118.371 60.3517 118.365 60.4085 118.358 60.4452C118.365 60.4185 118.371 60.3884 118.375 60.3617L118.378 60.3583Z" fill="white"/>
<path d="M98.078 51.4514C97.9343 51.5684 97.7539 51.7321 98.078 51.4514Z" fill="white"/>
<path d="M71.9581 58.7112C71.898 57.4717 71.2966 56.2924 70.3711 55.4638C70.017 55.1464 69.6027 54.8758 69.135 54.7856C68.2997 54.6252 67.4411 55.0929 66.9199 55.7611C65.5835 57.4751 65.4398 60.7693 66.823 62.4966C67.568 63.4287 68.6138 63.8129 69.7063 63.1848C70.2575 62.8674 70.6852 62.3696 71.0293 61.8351C71.5371 61.0399 71.8879 60.1345 71.9514 59.1923C71.9614 59.032 71.9648 58.8716 71.9581 58.7112ZM69.2085 60.365C68.6806 60.6858 67.979 60.0075 68.5302 58.5442C69.2385 56.6699 69.7564 57.7591 69.6829 59.2759C69.6562 59.8605 69.4524 60.218 69.2085 60.3617V60.365Z" fill="#333333"/>
<path d="M104.396 58.7414C104.279 57.9696 103.998 57.2246 103.41 56.7C102.278 55.6844 100.617 55.6777 99.6083 56.8671C98.7898 57.8293 98.6194 59.2024 98.8031 60.452C98.9 61.1068 99.0871 61.7583 99.448 62.3129C99.8088 62.8675 100.353 63.3219 100.995 63.4789C103.404 64.0703 104.5 61.5846 104.463 59.5766C104.459 59.3027 104.439 59.0187 104.396 58.7414ZM102.288 60.2649C102.087 60.7126 101.596 60.8896 101.352 60.335C101.259 60.1212 101.259 59.8807 101.289 59.6501C101.322 59.3862 101.429 58.5509 101.72 58.4373C102.411 58.1701 102.425 59.7904 102.335 60.1179C102.321 60.168 102.305 60.2181 102.281 60.2649H102.288Z" fill="#333333"/>
<path d="M48.3408 106.805C48.3742 106.845 48.401 106.878 48.4243 106.905C48.3909 106.855 48.3542 106.808 48.3408 106.805Z" fill="#02C000"/>
<path d="M114.923 103.327C114.833 103.39 114.79 103.424 114.923 103.327Z" fill="#02C000"/>
<path d="M127.422 82.2584C126.089 79.8596 123.994 77.9051 121.408 77.0264C115.879 75.1421 110.256 77.8884 105.017 79.3918C99.4413 80.9922 93.6046 81.5534 87.818 81.4332C81.5035 81.3029 75.2391 80.3741 69.0483 79.178C63.6459 78.1323 57.6488 77.9719 52.4603 80.1536C47.3586 82.2985 44.061 87.7777 43.7603 93.1935C43.4329 99.1471 46.2961 104.994 50.5692 109.153C55.5406 113.998 62.1892 116.861 68.9046 118.248C85.8334 121.749 103.875 117.469 117.636 107.059C120.944 104.556 124.041 101.676 126.206 98.1415C128.371 94.6067 129.55 90.3436 128.839 86.2576C128.595 84.861 128.11 83.4979 127.419 82.2551L127.422 82.2584Z" fill="#02C000"/>
<mask id="mask0_1846_2203" style="mask-type:luminance" maskUnits="userSpaceOnUse" x="43" y="76" width="87" height="44">
<path d="M127.422 82.2584C126.089 79.8596 123.994 77.9051 121.408 77.0264C115.879 75.1421 110.256 77.8884 105.017 79.3918C99.4413 80.9922 93.6046 81.5534 87.818 81.4332C81.5035 81.3029 75.2391 80.3741 69.0483 79.178C63.6459 78.1323 57.6488 77.9719 52.4603 80.1536C47.3586 82.2985 44.061 87.7777 43.7603 93.1935C43.4329 99.1471 46.2961 104.994 50.5692 109.153C55.5406 113.998 62.1892 116.861 68.9046 118.248C85.8334 121.749 103.875 117.469 117.636 107.059C120.944 104.556 124.041 101.676 126.206 98.1415C128.371 94.6067 129.55 90.3436 128.839 86.2576C128.595 84.861 128.11 83.4979 127.419 82.2551L127.422 82.2584Z" fill="white"/>
</mask>
<g mask="url(#mask0_1846_2203)">
<path d="M136.049 75.6934H36.7375V99.3275H136.049V75.6934Z" fill="white"/>
<path d="M131.02 84.4402C130.914 83.929 130.189 83.7519 129.844 84.1295C129.557 84.4469 129.276 84.7709 128.996 85.095C128.976 85.095 128.952 85.1017 128.932 85.105C128.932 85.105 128.936 85.1117 128.939 85.1151C128.939 85.1151 128.939 85.1184 128.939 85.1217C128.949 85.1485 128.956 85.1752 128.949 85.2019C128.949 85.2153 128.942 85.2253 128.939 85.2353C128.939 85.2353 128.939 85.2387 128.939 85.242C128.932 85.2587 128.929 85.2721 128.922 85.2888C128.889 85.4024 128.852 85.5126 128.812 85.6229C128.906 85.6429 128.989 85.7398 128.942 85.8434C128.792 86.1742 128.622 86.4982 128.438 86.8089C128.424 86.8323 128.408 86.8524 128.394 86.8758C128.177 87.4805 127.917 88.0718 127.573 88.6131C127.416 88.8603 127.232 89.1009 127.025 89.3147C126.55 89.9495 125.986 90.5174 125.331 90.9651C123.477 92.2247 121.081 92.7626 118.906 92.0877C118.375 91.924 117.864 91.6634 117.416 91.3193C117.242 91.2224 117.072 91.1155 116.908 91.0052C116.764 90.9083 116.627 90.8048 116.501 90.6912C116.374 90.5776 116.247 90.4606 116.126 90.337C116.023 90.2301 115.933 90.1165 115.836 90.0029C115.585 90.4339 115.281 90.8315 114.984 91.2291C114.967 91.2491 114.95 91.2725 114.934 91.2926C114.142 92.4652 113.049 93.4174 111.74 94.0188C109.819 94.8975 107.587 94.8808 105.646 94.0555C105.178 93.8551 104.713 93.6045 104.272 93.3172C104.262 93.3105 104.249 93.3072 104.239 93.3038C104.089 93.2337 103.948 93.1501 103.808 93.0633C103.354 92.7759 102.966 92.3951 102.605 92.0008C102.445 91.8238 102.288 91.64 102.134 91.4596C100.845 93.3105 98.8734 94.8206 96.7285 95.4888C94.3932 96.2205 91.7438 95.9699 89.5421 94.9042C88.9073 94.5968 88.3126 94.2226 87.7446 93.8016C87.4305 93.5678 87.1466 93.2971 86.8592 93.0365C86.8793 92.9864 86.8927 92.9363 86.9127 92.8895C86.6688 92.6791 86.4349 92.4586 86.2077 92.2247C86.161 92.3149 86.1175 92.4084 86.0674 92.4953C85.897 92.786 85.7033 93.0633 85.4761 93.3138C84.4905 94.8206 82.9035 95.9031 81.1061 96.1971C78.8008 96.5747 76.6191 95.5991 74.9453 94.0656C74.4742 93.6346 74.0332 93.1668 73.6155 92.6824C73.4017 92.4318 73.2013 92.1679 72.9741 91.9273C72.9641 91.9173 72.9574 91.9073 72.9474 91.8973C72.9507 91.8939 72.954 91.8872 72.9607 91.8839C72.7035 91.5866 72.4763 91.2591 72.2992 90.9083C71.9885 91.0754 71.7145 91.326 71.4272 91.5264C71.1532 91.7202 70.8726 91.9073 70.5886 92.0844C69.9806 92.4652 69.3458 92.7993 68.6876 93.0867C67.4581 93.6212 66.1083 93.942 64.7619 93.7515C63.6293 93.5911 62.5301 93.0533 61.6715 92.3049C61.2205 91.914 60.8262 91.4629 60.5055 90.9585C60.3585 90.7246 60.2215 90.4807 60.1079 90.2268C60.0879 90.18 60.0678 90.1299 60.0444 90.0798C60.0444 90.0731 60.0478 90.0664 60.0511 90.0631C59.9375 89.8994 59.834 89.729 59.7438 89.5519C59.7037 89.4817 59.6602 89.4116 59.6201 89.3414C59.6101 89.3214 59.6034 89.3013 59.6001 89.2813C59.6001 89.2813 59.5934 89.2813 59.5901 89.2846C59.5734 89.2946 59.56 89.308 59.5433 89.3214C59.5366 89.3281 59.5333 89.3381 59.5299 89.3448C59.3729 89.5586 59.1925 89.7524 58.9787 89.9027C58.7749 90.1633 58.5811 90.4373 58.3572 90.6611C57.9129 91.1055 57.4452 91.5164 56.9173 91.8639C55.8515 92.5655 54.6354 93.0399 53.3691 93.2103C50.85 93.5511 48.3042 92.6256 46.4967 90.8582C45.5445 89.9294 44.8095 88.7701 44.3552 87.5172C44.3552 87.4972 44.3585 87.4805 44.3618 87.4604C44.3719 87.3736 44.3217 87.2867 44.2516 87.2232C44.2449 87.1998 44.2349 87.1798 44.2282 87.1597C44.1848 87.0194 44.0144 87.0395 43.9676 87.1464C43.8774 87.1631 43.7972 87.2132 43.7471 87.2967C43.6502 87.4538 43.5567 87.6141 43.4631 87.7711C43.3562 87.9449 43.2894 88.132 43.2159 88.3224C43.1524 88.4861 43.0889 88.6498 43.0254 88.8135C43.0154 88.8403 43.0087 88.8703 42.9987 88.8971C42.8885 89.1242 42.7916 89.3548 42.7214 89.592C42.5343 90.2502 42.3773 90.915 42.247 91.5866C41.9897 92.9163 41.8461 94.2727 41.8127 95.6258C41.7458 98.3621 42.0599 101.125 42.8885 103.738C43.6702 106.2 44.8396 108.565 46.4165 110.62C47.94 112.605 49.7341 114.339 51.7655 115.802C53.7801 117.252 56.0486 118.338 58.4207 119.066C58.1802 119.277 58.2102 119.681 58.4207 119.898C58.6646 120.149 59.0021 120.092 59.2526 119.898C62.5168 117.346 65.7208 114.679 69.2021 112.424C72.6366 110.199 76.3852 108.582 80.3677 107.63C84.2332 106.705 88.3259 106.537 92.2683 106.965C96.0002 107.369 99.6686 108.499 103.056 110.109C104.971 111.021 106.782 112.107 108.532 113.303C110.229 114.466 111.85 115.725 113.236 117.299C113.57 117.68 114.132 117.753 114.596 117.593C114.706 117.646 114.83 117.67 114.947 117.646C115.542 117.516 116.1 117.225 116.648 116.961C117.215 116.691 117.757 116.387 118.291 116.053C119.347 115.394 120.359 114.659 121.325 113.874C123.226 112.324 124.896 110.5 126.336 108.519C129.457 104.216 131.314 99.0403 131.725 93.7482C131.966 90.631 131.649 87.4972 131.017 84.4435L131.02 84.4402Z" fill="#333333"/>
</g>
<path d="M57.8025 82.8466C57.9495 82.8299 57.8727 82.8366 57.8025 82.8466Z" fill="#02C000"/>
<path d="M125.12 87.0597C125.12 87.0597 125.12 87.0263 125.117 87.0096C125.117 86.9895 125.113 86.9695 125.11 86.9494C125.107 86.9193 125.1 86.8893 125.093 86.8625C125.11 87.1532 125.12 87.1398 125.12 87.0597Z" fill="#02C000"/>
<path d="M124.418 84.3768C124.418 84.3768 124.418 84.3701 124.415 84.3668C124.388 84.32 124.362 84.2398 124.345 84.1997C124.301 84.1329 124.291 84.2198 124.418 84.3768Z" fill="#02C000"/>
<path d="M123.456 82.6628C123.433 82.6361 123.376 82.5692 123.349 82.5225C123.349 82.5191 123.343 82.5158 123.339 82.5125C123.379 82.6528 123.48 82.7196 123.456 82.6628Z" fill="#02C000"/>
<path d="M48.3408 106.805C48.3742 106.845 48.401 106.878 48.4243 106.905C48.3909 106.855 48.3542 106.808 48.3408 106.805Z" fill="#02C000"/>
<path d="M114.923 103.327C114.833 103.39 114.79 103.424 114.923 103.327Z" fill="#02C000"/>
<path d="M127.422 82.2584C126.089 79.8596 123.994 77.9051 121.408 77.0264C115.879 75.1421 110.256 77.8884 105.017 79.3918C99.4413 80.9922 93.6046 81.5534 87.818 81.4332C81.5035 81.3029 75.2391 80.3741 69.0483 79.178C63.6459 78.1323 57.6488 77.9719 52.4603 80.1536C47.3586 82.2985 44.061 87.7777 43.7603 93.1935C43.4329 99.1471 46.2961 104.994 50.5692 109.153C55.5406 113.998 62.1892 116.861 68.9046 118.248C85.8334 121.749 103.875 117.469 117.636 107.059C120.944 104.556 124.041 101.676 126.206 98.1415C128.371 94.6067 129.55 90.3436 128.839 86.2576C128.595 84.861 128.11 83.4979 127.419 82.2551L127.422 82.2584Z" fill="#02C000"/>
<mask id="mask1_1846_2203" style="mask-type:luminance" maskUnits="userSpaceOnUse" x="43" y="76" width="87" height="44">
<path d="M127.422 82.2584C126.089 79.8596 123.994 77.9051 121.408 77.0264C115.879 75.1421 110.256 77.8884 105.017 79.3918C99.4413 80.9922 93.6046 81.5534 87.818 81.4332C81.5035 81.3029 75.2391 80.3741 69.0483 79.178C63.6459 78.1323 57.6488 77.9719 52.4603 80.1536C47.3586 82.2985 44.061 87.7777 43.7603 93.1935C43.4329 99.1471 46.2961 104.994 50.5692 109.153C55.5406 113.998 62.1892 116.861 68.9046 118.248C85.8334 121.749 103.875 117.469 117.636 107.059C120.944 104.556 124.041 101.676 126.206 98.1415C128.371 94.6067 129.55 90.3436 128.839 86.2576C128.595 84.861 128.11 83.4979 127.419 82.2551L127.422 82.2584Z" fill="white"/>
</mask>
<g mask="url(#mask1_1846_2203)">
<path d="M136.049 75.6934H36.7375V99.3275H136.049V75.6934Z" fill="white"/>
<path d="M131.02 84.4402C130.914 83.929 130.189 83.7519 129.844 84.1295C129.557 84.4469 129.276 84.7709 128.996 85.095C128.976 85.095 128.952 85.1017 128.932 85.105C128.932 85.105 128.936 85.1117 128.939 85.1151C128.939 85.1151 128.939 85.1184 128.939 85.1217C128.949 85.1485 128.956 85.1752 128.949 85.2019C128.949 85.2153 128.942 85.2253 128.939 85.2353C128.939 85.2353 128.939 85.2387 128.939 85.242C128.932 85.2587 128.929 85.2721 128.922 85.2888C128.889 85.4024 128.852 85.5126 128.812 85.6229C128.906 85.6429 128.989 85.7398 128.942 85.8434C128.792 86.1742 128.622 86.4982 128.438 86.8089C128.424 86.8323 128.408 86.8524 128.394 86.8758C128.177 87.4805 127.917 88.0718 127.573 88.6131C127.416 88.8603 127.232 89.1009 127.025 89.3147C126.55 89.9495 125.986 90.5174 125.331 90.9651C123.477 92.2247 121.081 92.7626 118.906 92.0877C118.375 91.924 117.864 91.6634 117.416 91.3193C117.242 91.2224 117.072 91.1155 116.908 91.0052C116.764 90.9083 116.627 90.8048 116.501 90.6912C116.374 90.5776 116.247 90.4606 116.126 90.337C116.023 90.2301 115.933 90.1165 115.836 90.0029C115.585 90.4339 115.281 90.8315 114.984 91.2291C114.967 91.2491 114.95 91.2725 114.934 91.2926C114.142 92.4652 113.049 93.4174 111.74 94.0188C109.819 94.8975 107.587 94.8808 105.646 94.0555C105.178 93.8551 104.713 93.6045 104.272 93.3172C104.262 93.3105 104.249 93.3072 104.239 93.3038C104.089 93.2337 103.948 93.1501 103.808 93.0633C103.354 92.7759 102.966 92.3951 102.605 92.0008C102.445 91.8238 102.288 91.64 102.134 91.4596C100.845 93.3105 98.8734 94.8206 96.7285 95.4888C94.3932 96.2205 91.7438 95.9699 89.5421 94.9042C88.9073 94.5968 88.3126 94.2226 87.7446 93.8016C87.4305 93.5678 87.1466 93.2971 86.8592 93.0365C86.8793 92.9864 86.8927 92.9363 86.9127 92.8895C86.6688 92.6791 86.4349 92.4586 86.2077 92.2247C86.161 92.3149 86.1175 92.4084 86.0674 92.4953C85.897 92.786 85.7033 93.0633 85.4761 93.3138C84.4905 94.8206 82.9035 95.9031 81.1061 96.1971C78.8008 96.5747 76.6191 95.5991 74.9453 94.0656C74.4742 93.6346 74.0332 93.1668 73.6155 92.6824C73.4017 92.4318 73.2013 92.1679 72.9741 91.9273C72.9641 91.9173 72.9574 91.9073 72.9474 91.8973C72.9507 91.8939 72.954 91.8872 72.9607 91.8839C72.7035 91.5866 72.4763 91.2591 72.2992 90.9083C71.9885 91.0754 71.7145 91.326 71.4272 91.5264C71.1532 91.7202 70.8726 91.9073 70.5886 92.0844C69.9806 92.4652 69.3458 92.7993 68.6876 93.0867C67.4581 93.6212 66.1083 93.942 64.7619 93.7515C63.6293 93.5911 62.5301 93.0533 61.6715 92.3049C61.2205 91.914 60.8262 91.4629 60.5055 90.9585C60.3585 90.7246 60.2215 90.4807 60.1079 90.2268C60.0879 90.18 60.0678 90.1299 60.0444 90.0798C60.0444 90.0731 60.0478 90.0664 60.0511 90.0631C59.9375 89.8994 59.834 89.729 59.7438 89.5519C59.7037 89.4817 59.6602 89.4116 59.6201 89.3414C59.6101 89.3214 59.6034 89.3013 59.6001 89.2813C59.6001 89.2813 59.5934 89.2813 59.5901 89.2846C59.5734 89.2946 59.56 89.308 59.5433 89.3214C59.5366 89.3281 59.5333 89.3381 59.5299 89.3448C59.3729 89.5586 59.1925 89.7524 58.9787 89.9027C58.7749 90.1633 58.5811 90.4373 58.3572 90.6611C57.9129 91.1055 57.4452 91.5164 56.9173 91.8639C55.8515 92.5655 54.6354 93.0399 53.3691 93.2103C50.85 93.5511 48.3042 92.6256 46.4967 90.8582C45.5445 89.9294 44.8095 88.7701 44.3552 87.5172C44.3552 87.4972 44.3585 87.4805 44.3618 87.4604C44.3719 87.3736 44.3217 87.2867 44.2516 87.2232C44.2449 87.1998 44.2349 87.1798 44.2282 87.1597C44.1848 87.0194 44.0144 87.0395 43.9676 87.1464C43.8774 87.1631 43.7972 87.2132 43.7471 87.2967C43.6502 87.4538 43.5567 87.6141 43.4631 87.7711C43.3562 87.9449 43.2894 88.132 43.2159 88.3224C43.1524 88.4861 43.0889 88.6498 43.0254 88.8135C43.0154 88.8403 43.0087 88.8703 42.9987 88.8971C42.8885 89.1242 42.7916 89.3548 42.7214 89.592C42.5343 90.2502 42.3773 90.915 42.247 91.5866C41.9897 92.9163 41.8461 94.2727 41.8127 95.6258C41.7458 98.3621 42.0599 101.125 42.8885 103.738C43.6702 106.2 44.8396 108.565 46.4165 110.62C47.94 112.605 49.7341 114.339 51.7655 115.802C53.7801 117.252 56.0486 118.338 58.4207 119.066C58.1802 119.277 58.2102 119.681 58.4207 119.898C58.6646 120.149 59.0021 120.092 59.2526 119.898C62.5168 117.346 65.7208 114.679 69.2021 112.424C72.6366 110.199 76.3852 108.582 80.3677 107.63C84.2332 106.705 88.3259 106.537 92.2683 106.965C96.0002 107.369 99.6686 108.499 103.056 110.109C104.971 111.021 106.782 112.107 108.532 113.303C110.229 114.466 111.85 115.725 113.236 117.299C113.57 117.68 114.132 117.753 114.596 117.593C114.706 117.646 114.83 117.67 114.947 117.646C115.542 117.516 116.1 117.225 116.648 116.961C117.215 116.691 117.757 116.387 118.291 116.053C119.347 115.394 120.359 114.659 121.325 113.874C123.226 112.324 124.896 110.5 126.336 108.519C129.457 104.216 131.314 99.0403 131.725 93.7482C131.966 90.631 131.649 87.4972 131.017 84.4435L131.02 84.4402Z" fill="#333333"/>
</g>
<path d="M57.8025 82.8466C57.9495 82.8299 57.8727 82.8366 57.8025 82.8466Z" fill="#02C000"/>
<path d="M125.12 87.0597C125.12 87.0597 125.12 87.0263 125.117 87.0096C125.117 86.9895 125.113 86.9695 125.11 86.9494C125.107 86.9193 125.1 86.8893 125.093 86.8625C125.11 87.1532 125.12 87.1398 125.12 87.0597Z" fill="#02C000"/>
<path d="M124.418 84.3768C124.418 84.3768 124.418 84.3701 124.415 84.3668C124.388 84.32 124.362 84.2398 124.345 84.1997C124.301 84.1329 124.291 84.2198 124.418 84.3768Z" fill="#02C000"/>
<path d="M123.456 82.6628C123.433 82.6361 123.376 82.5692 123.349 82.5225C123.349 82.5191 123.343 82.5158 123.339 82.5125C123.379 82.6528 123.48 82.7196 123.456 82.6628Z" fill="#02C000"/>
</g>
<defs>
<clipPath id="clip0_1846_2203">
<rect width="175.352" height="157.695" fill="white"/>
</clipPath>
</defs>
</svg>
