<svg width="324" height="225" viewBox="0 0 324 225" fill="none" xmlns="http://www.w3.org/2000/svg">
<path d="M143.889 192.988L154.844 165.771H176.814L184.593 191.05L192.371 165.771H204.629L212.407 191.05L220.186 165.771H232.377V167.214L218.619 207.674L218.285 208.564H206.585L206.206 207.664L198.5 182.481L190.794 207.664L190.477 208.564H178.606L178.38 207.674L165.797 170.664L143.027 224.878H130.643V223.408L130.697 223.28L137.275 207.876L121.099 167.232V165.771H133.501L143.889 192.988ZM61.8525 164.466C67.9639 164.466 72.8539 166.192 76.4355 169.715C80.0806 173.246 81.8623 178.2 81.8623 184.477V208.564H70.9619V204.64C69.5575 205.961 67.9556 207.082 66.1582 208.001L66.1475 208.006C63.5974 209.253 60.7473 209.869 57.6113 209.869C54.6952 209.869 52.0618 209.309 49.7275 208.17L49.7217 208.166C47.4425 207.026 45.6342 205.423 44.3145 203.357C42.9888 201.282 42.3321 198.924 42.332 196.304C42.3321 192.109 43.7585 188.73 46.6465 186.246C49.5667 183.727 53.7477 182.285 59.1025 181.843L69.6553 180.932C69.3609 179.518 68.672 178.316 67.5889 177.305C66.0987 175.914 64.2045 175.203 61.8525 175.203C59.6315 175.203 57.9241 175.769 56.6621 176.837L56.6504 176.847C55.3276 177.915 54.5957 179.063 54.3613 180.281L54.2559 180.831H52.7275L42.6895 178.718L42.8369 178.049C43.6893 174.185 45.7954 170.952 49.1182 168.361L49.1211 168.36L49.123 168.358C52.5268 165.749 56.7863 164.466 61.8525 164.466ZM103.176 164.466C107.691 164.466 111.557 165.582 114.734 167.848L115.034 168.058C118.108 170.26 120.139 173.295 121.125 177.129L121.3 177.811L111.182 180.029L111.048 180.005L109.733 179.766L109.619 179.357C109.295 178.2 108.505 177.214 107.153 176.413L107.144 176.407C105.845 175.608 104.366 175.203 102.687 175.203C101.142 175.203 99.8723 175.485 98.8516 176.018C97.9455 176.517 97.5734 177.15 97.5732 177.95C97.5732 178.44 97.7728 178.957 98.2705 179.508C98.7664 179.954 99.5363 180.326 100.64 180.581L100.867 180.631L100.874 180.632L100.88 180.634L108.711 182.428L108.714 182.429C112.956 183.42 116.253 184.895 118.542 186.896L118.759 187.086C120.964 189.07 122.044 191.79 122.044 195.161C122.044 198.118 121.245 200.734 119.633 202.979C118.03 205.211 115.833 206.916 113.068 208.102C110.306 209.286 107.167 209.869 103.666 209.869C98.9373 209.869 94.8346 208.783 91.3906 206.581L91.3809 206.574C87.9884 204.313 85.7134 201.246 84.5801 197.393L84.3809 196.715L95.2637 193.973L96.7871 194.354L96.8945 194.73C97.2796 196.078 98.0907 197.137 99.3623 197.922L99.4893 197.996C100.812 198.748 102.333 199.133 104.073 199.133C105.835 199.133 107.26 198.796 108.383 198.163C109.474 197.495 109.921 196.715 109.921 195.814C109.921 194.973 109.623 194.36 109.038 193.9C108.393 193.393 107.365 192.96 105.889 192.644L105.886 192.643L98.0557 190.93H98.0518C94.1087 190.041 90.9908 188.527 88.7549 186.349L88.748 186.343L88.7422 186.336C86.5487 184.085 85.4503 181.33 85.4502 178.114C85.4502 175.454 86.1785 173.112 87.6494 171.121L87.7939 170.93C89.3425 168.868 91.4535 167.278 94.1006 166.151L94.1055 166.149C96.8099 165.023 99.8373 164.466 103.176 164.466ZM252.779 164.466C257.072 164.466 260.843 165.444 264.064 167.422C267.277 169.394 269.781 172.155 271.574 175.686C273.371 179.223 274.258 183.329 274.258 187.983V190.223L272.637 191.843H243.378C243.605 192.641 243.939 193.409 244.382 194.148C245.356 195.632 246.609 196.834 248.147 197.758C249.728 198.675 251.431 199.133 253.269 199.133C254.866 199.133 256.429 198.66 257.964 197.688C259.493 196.719 260.691 195.421 261.562 193.783L261.862 193.134L263.274 193.423L263.399 193.475L272.855 197.415L272.565 198.053C270.828 201.865 268.265 204.801 264.879 206.834C261.55 208.865 257.671 209.869 253.269 209.869C248.82 209.869 244.869 208.924 241.438 207.011L241.434 207.008C238.061 205.097 235.416 202.423 233.508 198.999C231.595 195.567 230.649 191.617 230.649 187.168C230.649 182.723 231.566 178.775 233.422 175.345L233.425 175.34L233.427 175.337C235.334 171.916 237.948 169.242 241.266 167.33L241.579 167.153C244.832 165.355 248.572 164.466 252.779 164.466ZM290.927 148.267L290.97 148.382V168.629C291.956 167.84 293.037 167.13 294.214 166.503C296.772 165.139 299.685 164.466 302.935 164.466C306.855 164.466 310.378 165.447 313.482 167.419L313.776 167.602C316.792 169.504 319.171 172.119 320.909 175.433C322.762 178.861 323.679 182.807 323.679 187.249C323.679 191.64 322.76 195.56 320.906 198.988C319.112 202.352 316.639 205.025 313.49 206.993L313.487 206.994C310.381 208.915 306.856 209.869 302.935 209.869C299.689 209.869 296.78 209.225 294.225 207.919L294.214 207.913C292.704 207.108 291.35 206.179 290.154 205.126V208.564H278.602V148.556L290.494 147.114L290.927 148.267ZM103.234 209.188L103.666 209.191L103.001 209.181C103.078 209.182 103.157 209.187 103.234 209.188ZM252.862 209.188L253.269 209.191C253.069 209.191 252.871 209.187 252.674 209.183C252.737 209.184 252.799 209.188 252.862 209.188ZM57.3467 209.189L57.6084 209.19C57.472 209.19 57.3362 209.188 57.2012 209.186C57.2496 209.186 57.2981 209.189 57.3467 209.189ZM58.0508 209.186C58.0934 209.185 58.1362 209.186 58.1787 209.185C58.2414 209.183 58.3038 209.179 58.3662 209.177C58.2614 209.18 58.1563 209.184 58.0508 209.186ZM58.5762 209.169C58.6571 209.165 58.7378 209.162 58.8184 209.157C58.7378 209.162 58.6571 209.166 58.5762 209.169ZM40.0195 161.907H12.3682V173.03H37.5732V184.828H12.3682V196.767H40.0195V208.564H0V150.11H40.0195V161.907ZM113.294 207.258C113.132 207.333 112.967 207.407 112.801 207.479C112.669 207.535 112.536 207.588 112.402 207.642C112.451 207.622 112.501 207.604 112.55 207.584L112.801 207.479C112.967 207.407 113.132 207.334 113.294 207.259V207.258ZM71.5586 203.062C71.5856 203.032 71.6138 203.003 71.6406 202.973V202.971C71.6134 203.001 71.586 203.031 71.5586 203.062ZM60.5645 199.561L60.2207 199.566L60.5752 199.561C60.6147 199.559 60.654 199.555 60.6934 199.554C60.6505 199.556 60.6075 199.559 60.5645 199.561ZM60.6045 191.84C58.3068 192.054 56.8149 192.529 55.9941 193.164C55.232 193.795 54.8633 194.58 54.8633 195.569C54.8633 196.5 55.287 197.28 56.2676 197.937C57.2731 198.555 58.5771 198.888 60.2207 198.888C62.0009 198.888 63.5858 198.432 64.9932 197.527L64.998 197.524L65.002 197.521C66.4889 196.598 67.6602 195.426 68.5264 194.003C69.0807 193.057 69.4555 192.085 69.6533 191.086L60.6045 191.84ZM300.977 175.61C298.914 175.61 297.108 176.099 295.54 177.061C294.024 178.023 292.83 179.365 291.958 181.108L291.957 181.112L291.955 181.116C291.09 182.796 290.644 184.806 290.644 187.168C290.644 189.472 291.088 191.486 291.958 193.227C292.83 194.97 294.024 196.312 295.54 197.274L295.688 197.363C297.221 198.266 298.978 198.725 300.977 198.725C303.098 198.725 304.898 198.235 306.405 197.28C307.925 196.318 309.122 194.973 309.995 193.227C310.865 191.486 311.311 189.472 311.311 187.168C311.311 184.806 310.864 182.796 309.999 181.116L309.995 181.108C309.122 179.362 307.925 178.017 306.405 177.055C304.898 176.1 303.098 175.61 300.977 175.61ZM243.807 194.509C243.936 194.706 244.07 194.898 244.208 195.086H244.209C244.071 194.898 243.937 194.706 243.808 194.509H243.807ZM290.745 192.093C290.749 192.105 290.754 192.116 290.758 192.128C290.717 192.012 290.677 191.894 290.64 191.776L290.745 192.093ZM242.62 191.627C242.649 191.748 242.681 191.869 242.715 191.989C242.679 191.861 242.645 191.732 242.614 191.602L242.62 191.627ZM91.9805 187.936C92.3271 188.138 92.6877 188.33 93.0615 188.514L92.5117 188.231C92.3314 188.135 92.154 188.037 91.9805 187.936ZM322.991 187.855C322.993 187.787 322.996 187.719 322.997 187.65L323 187.249C323 187.452 322.995 187.654 322.991 187.855ZM231.337 186.383C231.337 186.396 231.337 186.409 231.337 186.422C231.337 186.401 231.337 186.38 231.338 186.358L231.337 186.383ZM109.137 183.23C109.074 183.215 109.012 183.198 108.949 183.183L108.56 183.09L109.137 183.23ZM58.6699 182.562C58.5794 182.57 58.4892 182.582 58.3994 182.591C58.6501 182.565 58.9036 182.54 59.1602 182.519L58.6699 182.562ZM253.024 175.203C251.063 175.203 249.332 175.641 247.812 176.502L247.797 176.51C246.277 177.32 245.093 178.455 244.233 179.919C243.906 180.492 243.643 181.104 243.447 181.759H261.912C261.699 181.018 261.398 180.329 261.01 179.689L261.004 179.682L261 179.674C260.192 178.26 259.088 177.182 257.68 176.428L257.667 176.421L257.654 176.413C256.299 175.61 254.762 175.203 253.024 175.203ZM69.6094 178.82C69.587 178.778 69.5662 178.735 69.543 178.693L69.5264 178.666C69.555 178.717 69.582 178.769 69.6094 178.82ZM86.1279 178.114L86.1309 178.398C86.1321 178.457 86.1357 178.515 86.1377 178.573C86.1324 178.421 86.1289 178.268 86.1289 178.113L86.1279 178.114ZM109.572 177.688C109.556 177.665 109.539 177.642 109.522 177.619C109.539 177.642 109.556 177.665 109.572 177.688ZM109.352 177.392C109.344 177.382 109.336 177.372 109.328 177.362C109.336 177.372 109.344 177.382 109.352 177.392ZM109.098 177.097C109.084 177.081 109.069 177.067 109.055 177.052C109.069 177.067 109.084 177.082 109.098 177.097ZM108.856 176.852C108.83 176.826 108.803 176.801 108.776 176.775C108.803 176.801 108.83 176.826 108.856 176.852ZM108.622 176.638C108.574 176.595 108.525 176.552 108.475 176.511C108.525 176.552 108.574 176.595 108.622 176.638ZM108.307 176.379C108.265 176.347 108.224 176.314 108.182 176.282C108.224 176.314 108.265 176.347 108.307 176.379ZM107.984 176.144C107.936 176.11 107.888 176.075 107.838 176.042C107.888 176.075 107.936 176.11 107.984 176.144ZM233.854 175.979C233.836 176.013 233.82 176.048 233.803 176.082C233.86 175.971 233.917 175.859 233.976 175.749L233.854 175.979ZM106.977 175.533C107.095 175.595 107.213 175.662 107.329 175.729C107.297 175.71 107.265 175.69 107.232 175.672L106.977 175.533ZM87.1689 173.231C87.1059 173.364 87.0465 173.498 86.9893 173.634C87.104 173.363 87.2295 173.097 87.3672 172.837L87.1689 173.231ZM88.8877 170.651C88.8303 170.718 88.7747 170.786 88.7188 170.854C88.7809 170.778 88.8433 170.704 88.9072 170.63L88.8877 170.651ZM75.9639 170.202V170.201C75.8603 170.099 75.7553 169.999 75.6494 169.9L75.6387 169.891C75.7482 169.993 75.8568 170.097 75.9639 170.202ZM290.291 170.114V170.116C290.314 170.094 290.337 170.072 290.36 170.051C290.337 170.072 290.314 170.093 290.291 170.114ZM264.162 168.288C264.107 168.252 264.053 168.215 263.998 168.18L263.71 167.999H263.709C263.862 168.093 264.013 168.191 264.162 168.288ZM94.1289 166.879C94.0944 166.894 94.0597 166.91 94.0254 166.926C94.1201 166.883 94.2152 166.84 94.3115 166.799L94.1289 166.879ZM300.081 165.335V165.336V165.335ZM103.808 165.154C103.734 165.153 103.661 165.149 103.587 165.147L103.176 165.145C103.388 165.145 103.599 165.149 103.808 165.154ZM11.6904 161.229H39.3408V161.229H11.6904V161.229Z" fill="#444444"/>
<path d="M143.927 167.788C143.648 168.022 143.233 167.994 142.988 167.725L134.103 157.944C133.84 157.654 133.876 157.202 134.182 156.958L139.207 152.954C139.479 152.737 139.872 152.761 140.115 153.01L144.511 157.506C144.518 157.512 144.524 157.52 144.529 157.528L144.53 157.53C144.575 157.596 144.663 157.617 144.732 157.578C144.748 157.569 144.761 157.558 144.773 157.544L158.162 142.025C158.437 141.707 158.932 141.712 159.199 142.036L165.066 149.142C165.303 149.43 165.265 149.854 164.979 150.094L151.69 161.246L146.435 165.677L143.927 167.788Z" fill="#21D2F2"/>
<g clip-path="url(#clip0_1846_2274)">
<path d="M199.46 123.956C199.433 123.929 199.395 123.921 199.357 123.929C199.34 123.934 199.324 123.937 199.308 123.943C199.262 123.953 199.226 123.991 199.216 124.035C199.202 124.081 199.216 124.13 199.251 124.165C199.286 124.2 199.335 124.211 199.381 124.2C199.424 124.187 199.462 124.151 199.473 124.108C199.479 124.092 199.481 124.075 199.487 124.059C199.498 124.024 199.487 123.983 199.46 123.956Z" fill="#21D2F2"/>
<path d="M232.795 51.5058C233.001 51.2455 232.922 50.9256 232.61 50.8036C231.371 50.3156 230.083 50.0011 228.755 49.9089C228.701 49.9062 228.646 49.9062 228.592 49.9035C228.654 49.5917 228.714 49.2799 228.768 48.9735C228.909 48.1683 228.991 47.3576 229.034 46.5415C229.072 45.8149 229.099 45.072 228.923 44.3644C228.942 44.3183 228.961 44.2749 228.98 44.2288C229.064 44.0146 228.809 43.776 228.6 43.8492C228.524 43.8763 228.448 43.9035 228.375 43.9306C228.356 43.9306 228.34 43.9306 228.321 43.936C228.305 43.9414 228.291 43.9495 228.278 43.955C228.248 43.9414 228.218 43.9333 228.185 43.9333C227.754 43.955 227.299 44.1719 226.895 44.3183C226.499 44.462 226.114 44.6355 225.729 44.809C225.396 44.9608 225.065 45.1208 224.737 45.2862C224.349 45.438 223.964 45.5926 223.576 45.7444C223.387 45.8203 223.191 45.8908 222.999 45.9667C222.915 45.5329 222.804 45.1045 222.676 44.6843C222.497 44.0932 222.297 43.5076 222.058 42.941C221.841 42.4231 221.589 41.767 221.085 41.4796C220.963 41.4091 220.832 41.4525 220.748 41.5501C220.713 41.5365 220.67 41.542 220.629 41.5718C218.87 42.9708 217.381 44.7548 216.397 46.7828C215.668 47.0295 214.941 47.2979 214.222 47.5745C210.936 48.8461 207.77 50.4159 204.771 52.2623C204.766 52.246 204.76 52.227 204.757 52.2107C203.99 49.6839 203.052 47.2139 201.978 44.8009C200.948 42.4909 199.712 40.2866 198.394 38.1285C197.079 35.9757 195.802 33.8094 194.33 31.7597C193.508 30.6129 192.652 29.4904 191.727 28.4249C191.28 27.9097 190.813 27.3675 190.309 26.8686C189.027 25.2609 187.649 23.729 186.156 22.3137C184.903 21.1289 183.612 19.9929 182.213 18.9789C181.668 18.583 181.11 18.2089 180.543 17.8483C181.129 16.9807 181.796 16.1646 182.501 15.3919C182.588 15.3675 182.677 15.3458 182.764 15.3187C182.916 15.2753 182.916 15.1072 182.821 15.0259C182.864 14.8957 182.723 14.7249 182.593 14.8252C182.533 14.8713 182.479 14.9201 182.419 14.9662C181.552 14.9391 180.668 15.1262 179.836 15.3539C179.131 15.5464 178.439 15.8257 177.78 16.151C178.198 14.7303 178.754 13.3503 179.467 12.0353C179.556 11.9703 179.649 11.9079 179.735 11.8374C179.817 11.7724 179.724 11.6612 179.643 11.6775C178.773 11.851 177.981 12.3282 177.233 12.7972C176.471 13.2744 175.769 13.8709 175.123 14.4972C174.812 14.7981 174.516 15.1126 174.231 15.4353C174.223 15.3865 174.215 15.3377 174.204 15.2916C174.107 14.7764 173.987 14.264 173.852 13.757C173.562 12.6888 173.19 11.6314 172.729 10.6255C172.277 9.63859 171.724 8.69237 171.113 7.79494C170.815 7.35572 170.512 6.8948 170.143 6.51252C169.801 6.16005 169.443 5.82386 169.077 5.49851C169.077 5.49579 169.077 5.49037 169.075 5.48766C168.996 5.30058 168.684 5.24094 168.633 5.48766C168.565 5.81301 168.625 6.16005 168.646 6.48811C168.665 6.80262 168.681 7.11441 168.703 7.42892C168.749 8.10131 168.82 8.7737 168.879 9.44338C168.909 9.78771 168.939 10.1348 168.969 10.4791C168.817 10.3544 168.66 10.2351 168.503 10.1158C167.136 9.08821 165.694 8.14198 164.262 7.20931C161.337 5.30058 158.284 3.58978 155.128 2.08774C154.241 1.66479 153.349 1.26081 152.446 0.873102C151.991 0.677891 151.541 0.498948 151.066 0.349829C150.6 0.203421 150.128 0.0109222 149.64 -0.00805664C149.608 -0.00805664 149.578 -0.00263413 149.551 0.0082109C149.513 0.0163447 149.48 0.0380347 149.459 0.0705698C149.361 0.170886 149.334 0.344407 149.453 0.447434C149.651 0.620955 149.871 0.745673 150.099 0.862257C151.072 1.81662 152.002 2.80352 152.826 3.89615C153.084 4.23777 153.336 4.58481 153.577 4.93999C152.609 4.62006 151.625 4.35978 150.625 4.16186C148.458 3.73077 146.249 3.59249 144.047 3.75788C143.432 3.80397 142.816 3.87446 142.206 3.96665C141.588 4.05883 140.943 4.13745 140.362 4.36791C140.167 4.44654 140.173 4.76918 140.417 4.76104C140.636 4.75291 140.853 4.7258 141.07 4.69597C142.523 5.61238 143.884 6.70773 145.096 7.92508C145.839 8.67068 146.503 9.48405 147.132 10.3218C146.842 10.2107 146.552 10.1076 146.268 10.0155C145.24 9.67926 144.185 9.42712 143.117 9.26444C142.052 9.10176 140.972 9.015 139.893 9.02043C139.343 9.02314 138.793 9.06381 138.245 9.12617C137.762 9.18039 137.131 9.18039 136.702 9.41627C136.64 9.45152 136.605 9.50845 136.586 9.57081C136.567 9.57352 136.548 9.57623 136.529 9.57895C136.431 9.60064 136.399 9.7362 136.469 9.80127C136.721 10.0344 137.076 10.1564 137.399 10.2703C137.779 10.4059 138.153 10.5523 138.521 10.7123C139.221 11.0186 139.91 11.3711 140.571 11.748C141.458 12.255 142.296 12.8379 143.079 13.4913C142.681 13.719 142.285 13.9549 141.9 14.2071C141.094 14.733 140.314 15.297 139.56 15.8935C138.063 17.0783 136.621 18.3851 135.477 19.9197C135.401 20.02 135.42 20.123 135.477 20.2016C135.317 20.2965 135.187 20.4131 135.135 20.565C135.124 20.5948 135.141 20.6354 135.17 20.6517C135.547 20.8415 136.157 20.5026 136.526 20.3833C137.066 20.2071 137.613 20.0444 138.158 19.8817C139.21 19.5699 140.278 19.3069 141.355 19.0955C141.68 19.0304 142.008 18.9734 142.336 18.9165C130.51 26.3725 121.53 38.0905 117.463 51.5004C117.341 51.636 119.209 43.7625 117.211 52.0508C114.584 49.5808 111.132 46.5361 107.491 44.6165C107.467 44.603 107.442 44.5948 107.418 44.584C107.277 43.5564 107.079 42.5343 106.819 41.5284C106.686 41.016 106.539 40.5062 106.377 40.002C106.309 39.7905 106.236 39.56 106.122 39.3594C106.122 39.3513 106.119 39.3404 106.117 39.3323C106.108 39.2835 106.073 39.2509 106.032 39.2265C105.957 39.1235 105.864 39.0367 105.748 38.9717C104.869 38.4891 104.316 39.8474 104.007 40.4086C103.815 40.7611 103.63 41.1217 103.451 41.4823C103.31 41.6829 103.172 41.8863 103.047 42.0978C102.974 42.2225 102.871 42.3852 102.784 42.556C101.944 41.1976 100.957 39.945 99.8074 38.828C99.2408 38.2776 98.2566 37.2256 97.4785 38.077C97.1748 38.4104 97.1287 38.8931 97.0555 39.3187C96.9606 39.8637 96.8901 40.4168 96.8549 40.9699C96.8034 41.748 96.8495 42.5397 96.9932 43.3097C96.0768 42.7213 95.079 42.2794 94.0054 41.9757C93.6176 41.8646 93.154 41.7155 92.7799 41.9486C92.4382 42.1601 92.3732 42.5776 92.4193 42.9464C92.5386 43.8818 92.8287 44.8226 93.1459 45.7091C93.3248 46.208 93.5173 46.7042 93.7586 47.1786C93.8888 47.4335 94.0189 47.6938 94.1653 47.9432C93.4658 47.9785 92.7636 48.0191 92.0722 48.1086C91.6954 48.1574 91.3239 48.2767 91.088 48.5939C90.8413 48.9274 90.8576 49.3666 90.9877 49.7435C91.267 50.5596 91.8391 51.3214 92.3705 51.9884C92.9181 52.6771 93.558 53.2952 94.2114 53.8863C94.5693 54.2089 94.9489 54.5397 95.3637 54.7864C95.5752 54.9139 95.7894 55.0386 96.0117 55.1443C96.1174 55.1958 96.2069 55.2175 96.2937 55.2202C96.5756 56.4593 96.9932 57.6577 97.3619 58.8723C97.7469 60.1412 98.1482 61.3992 98.6009 62.6437C99.0456 63.8637 99.4523 65.0919 99.9159 66.3039C100.42 67.6242 100.984 68.8985 101.629 70.1538C103.872 74.5217 106.737 78.6292 110.211 82.1105C110.983 82.8859 111.791 83.6261 112.632 84.3337C112.629 84.5506 112.629 84.7702 112.626 84.9871C112.626 85.7571 112.643 86.5271 112.68 87.2944C112.754 88.829 112.9 90.3608 113.101 91.8819C113.51 94.9645 114.348 98.0228 115.264 100.989C117 106.604 119.366 112.073 122.148 117.246C122.642 118.165 123.168 119.068 123.713 119.96C123.138 120.369 122.609 120.838 122.129 121.361C121.739 121.787 121.381 122.245 121.061 122.728C120.793 123.132 120.516 123.563 120.345 124.024C120.174 124.132 120.104 124.395 120.291 124.525C120.364 124.669 120.538 124.742 120.703 124.718C122.417 125.501 124.198 126.19 125.998 126.74C127.926 127.332 129.97 127.646 131.976 127.828C136.041 128.194 140.181 127.82 144.112 126.719C146.319 126.101 148.456 125.247 150.475 124.167C150.874 123.953 150.543 123.365 150.145 123.528C150.082 123.023 149.99 122.527 149.917 122.026C149.822 121.364 149.808 120.692 149.86 120.025C149.911 119.379 150.025 118.748 150.139 118.111C150.25 117.498 150.484 116.939 150.776 116.392C151.828 114.426 153.799 112.78 155.979 112.219C158.55 111.557 161.331 111.693 163.948 111.97C165.184 112.1 166.445 112.376 167.567 112.927C168.622 113.444 169.503 114.185 170.238 115.101C172.176 117.522 171.694 120.955 171.287 123.796C171.214 124.314 171.94 124.42 171.997 123.894C172.005 123.812 172.014 123.734 172.024 123.652C172.217 123.823 172.437 123.959 172.678 124.081C172.851 124.17 173.036 124.243 173.212 124.33C173.461 124.455 173.678 124.604 173.941 124.712C174.782 125.057 175.636 125.393 176.509 125.651C177.409 125.916 178.339 126.196 179.266 126.347C179.7 126.421 180.142 126.445 180.578 126.464C181.048 126.483 181.517 126.578 181.983 126.632C185.692 127.074 189.379 127.199 193.086 126.648C194.1 126.496 195.116 126.318 196.111 126.065C196.61 125.938 197.104 125.802 197.597 125.653C198.074 125.512 198.581 125.336 198.966 125.019C198.993 124.997 199.004 124.97 199.007 124.943C199.045 124.924 199.086 124.908 199.123 124.889C199.232 124.837 199.338 124.788 199.449 124.748C199.519 124.721 199.601 124.699 199.666 124.661C199.747 124.612 199.777 124.542 199.809 124.46C199.864 124.33 199.75 124.195 199.636 124.157C199.533 124.121 199.446 124.143 199.359 124.184C199.237 123.97 199.02 123.774 198.863 123.617C198.597 123.354 198.326 123.099 198.042 122.858C197.491 122.389 196.849 122.004 196.22 121.646C196.087 121.57 195.946 121.5 195.808 121.424C196.133 121.101 196.442 120.762 196.748 120.423C197.451 119.648 198.08 118.799 198.676 117.94C199.866 116.224 200.883 114.391 201.753 112.493C202.491 110.882 203.123 109.22 203.665 107.531C203.833 107.13 203.998 106.726 204.158 106.317C205.129 103.814 206.002 101.219 206.528 98.5841C206.547 98.4892 206.563 98.3943 206.582 98.2994C207.298 95.4363 207.802 92.5163 208.106 89.58C208.396 86.782 208.599 83.9595 208.431 81.148C208.616 81.0178 208.8 80.8904 208.987 80.7603C209.912 80.1258 210.741 79.364 211.563 78.5994C213.238 77.0431 214.814 75.3811 216.302 73.6487C219.298 70.162 222.034 66.4421 224.46 62.5352C224.767 62.0418 225.057 61.5429 225.328 61.0386C225.431 61.0115 225.537 60.9844 225.637 60.9518C226.255 60.7485 226.862 60.4991 227.451 60.2171C228.036 59.9378 228.606 59.626 229.142 59.2627C229.712 58.8777 230.211 58.4033 230.772 58.0047C230.918 57.9017 230.97 57.7336 230.886 57.5709C230.672 57.1615 230.148 56.8361 229.79 56.5542C229.435 56.2749 229.069 56.0065 228.692 55.7544C229.083 55.4236 229.468 55.0874 229.839 54.7349C230.905 53.7318 231.892 52.65 232.797 51.5031L232.795 51.5058Z" fill="#21D2F2"/>
<path d="M155.754 43.7409C153.132 34.0997 139.514 33.6876 132.684 38.7793C129.536 41.1273 127.503 45.2375 128.433 49.055C129.279 52.5254 132.334 55.0902 135.648 56.4269C141.797 58.9077 150.953 58.1729 154.645 51.9696C156.185 49.3803 156.481 46.4169 155.754 43.7436V43.7409Z" fill="white"/>
<path d="M149.73 52.3652C149.73 52.3652 149.733 52.3625 149.735 52.3598C149.779 52.3083 149.838 52.2622 149.898 52.2188C149.898 52.1971 149.836 52.2297 149.73 52.3625V52.3652Z" fill="white"/>
<path d="M145.267 38.3182C145.224 38.3128 145.183 38.3101 145.14 38.3047C145.129 38.3047 145.156 38.3074 145.27 38.3182H145.267Z" fill="white"/>
<path d="M189.317 43.448C186.424 37.2799 178.434 34.2839 172.092 36.5017C168.435 37.7814 165.393 40.9292 164.615 44.725C163.715 49.1118 165.973 53.8158 169.66 56.3535C175.641 60.4692 185.63 59.6721 189.287 52.8126C190.046 51.3865 190.472 49.8004 190.467 48.1791C190.461 46.5225 190.019 44.9364 189.32 43.4453L189.317 43.448Z" fill="white"/>
<path d="M186.673 48.9818C186.673 48.9818 186.673 48.9655 186.676 48.9574C186.676 48.9438 186.676 48.9303 186.679 48.9194C186.668 48.9764 186.662 49.0225 186.657 49.0523C186.662 49.0306 186.668 49.0062 186.671 48.9845L186.673 48.9818Z" fill="white"/>
<path d="M170.2 41.7534C169.937 41.9812 170.083 41.8483 170.2 41.7534V41.7534Z" fill="white"/>
<path d="M149.003 47.645C148.954 46.6391 148.466 45.6821 147.715 45.0097C147.428 44.7521 147.092 44.5325 146.712 44.4593C146.034 44.3291 145.338 44.7087 144.915 45.251C143.83 46.6418 143.714 49.3151 144.836 50.7169C145.441 51.4733 146.289 51.7851 147.176 51.2754C147.623 51.0178 147.97 50.6138 148.25 50.18C148.662 49.5348 148.946 48.8 148.998 48.0354C149.006 47.9053 149.009 47.7752 149.003 47.645ZM146.772 48.9871C146.344 49.2474 145.774 48.697 146.222 47.5095C146.796 45.9884 147.217 46.8723 147.157 48.1032C147.135 48.5777 146.97 48.8678 146.772 48.9844V48.9871Z" fill="#333333"/>
<path d="M175.327 47.6694C175.232 47.0431 175.004 46.4385 174.527 46.0128C173.608 45.1886 172.26 45.1832 171.442 46.1484C170.777 46.9292 170.639 48.0436 170.788 49.0576C170.867 49.589 171.019 50.1177 171.311 50.5677C171.604 51.0178 172.046 51.3865 172.567 51.514C174.522 51.9939 175.411 49.9767 175.381 48.3472C175.378 48.1249 175.362 47.8944 175.327 47.6694ZM173.616 48.9057C173.453 49.2691 173.055 49.4127 172.857 48.9627C172.781 48.7892 172.781 48.5939 172.805 48.4069C172.832 48.1927 172.919 47.5149 173.155 47.4227C173.716 47.2058 173.727 48.5207 173.654 48.7864C173.643 48.8271 173.63 48.8678 173.611 48.9057H173.616Z" fill="#333333"/>
<path d="M129.837 86.6736C129.865 86.7061 129.886 86.7332 129.905 86.7549C129.878 86.7143 129.848 86.6763 129.837 86.6736Z" fill="#02C000"/>
<path d="M183.87 83.8511C183.762 83.9297 183.797 83.9026 183.87 83.8511V83.8511Z" fill="#02C000"/>
<path d="M194.013 66.7538C192.931 64.8072 191.231 63.2211 189.133 62.508C184.645 60.9789 180.082 63.2075 175.831 64.4276C171.306 65.7263 166.569 66.1818 161.874 66.0842C156.749 65.9784 151.666 65.2247 146.642 64.2541C142.258 63.4054 137.391 63.2753 133.18 65.0457C129.04 66.7864 126.364 71.2328 126.12 75.6278C125.855 80.4592 128.178 85.2039 131.646 88.5794C135.68 92.5108 141.076 94.8343 146.525 95.9595C160.263 98.8009 174.904 95.3278 186.072 86.8795C188.756 84.8488 191.269 82.5117 193.026 79.6431C194.783 76.7746 195.74 73.3151 195.162 69.9992C194.964 68.8659 194.571 67.7597 194.01 66.7511L194.013 66.7538Z" fill="#02C000"/>
<mask id="mask0_1846_2274" style="mask-type:luminance" maskUnits="userSpaceOnUse" x="126" y="61" width="70" height="36">
<path d="M194.013 66.7538C192.931 64.8072 191.231 63.2211 189.133 62.508C184.645 60.9789 180.082 63.2075 175.831 64.4276C171.306 65.7263 166.569 66.1818 161.874 66.0842C156.749 65.9784 151.666 65.2247 146.642 64.2541C142.258 63.4054 137.391 63.2753 133.18 65.0457C129.04 66.7864 126.364 71.2328 126.12 75.6278C125.855 80.4592 128.178 85.2039 131.646 88.5794C135.68 92.5108 141.076 94.8343 146.525 95.9595C160.263 98.8009 174.904 95.3278 186.072 86.8795C188.756 84.8488 191.269 82.5117 193.026 79.6431C194.783 76.7746 195.74 73.3151 195.162 69.9992C194.964 68.8659 194.571 67.7597 194.01 66.7511L194.013 66.7538Z" fill="white"/>
</mask>
<g mask="url(#mask0_1846_2274)">
<path d="M201.013 61.4263H120.421V80.6057H201.013V61.4263Z" fill="white"/>
<path d="M196.933 68.5244C196.846 68.1095 196.258 67.9658 195.979 68.2722C195.745 68.5298 195.518 68.7928 195.29 69.0558C195.274 69.0558 195.255 69.0612 195.238 69.0639C195.238 69.0639 195.241 69.0693 195.244 69.072C195.244 69.072 195.244 69.0747 195.244 69.0775C195.252 69.0991 195.257 69.1208 195.252 69.1425C195.252 69.1534 195.247 69.1615 195.244 69.1696C195.244 69.1696 195.244 69.1724 195.244 69.1751C195.238 69.1886 195.236 69.1995 195.23 69.213C195.203 69.3052 195.173 69.3947 195.141 69.4841C195.217 69.5004 195.285 69.579 195.247 69.6631C195.125 69.9315 194.986 70.1945 194.837 70.4466C194.826 70.4656 194.813 70.4819 194.802 70.5009C194.626 70.9916 194.414 71.4715 194.135 71.9107C194.008 72.1114 193.858 72.3066 193.69 72.4801C193.305 72.9952 192.847 73.4561 192.316 73.8194C190.811 74.8416 188.867 75.2781 187.102 74.7304C186.671 74.5976 186.256 74.3861 185.893 74.1068C185.752 74.0282 185.614 73.9415 185.481 73.852C185.364 73.7734 185.253 73.6893 185.15 73.5971C185.047 73.5049 184.944 73.41 184.846 73.3097C184.762 73.223 184.689 73.1308 184.61 73.0386C184.407 73.3884 184.16 73.711 183.919 74.0336C183.905 74.0499 183.892 74.0689 183.878 74.0851C183.236 75.0368 182.349 75.8095 181.286 76.2975C179.727 77.0106 177.916 76.997 176.341 76.3274C175.961 76.1647 175.585 75.9613 175.227 75.7282C175.219 75.7227 175.208 75.72 175.2 75.7173C175.078 75.6604 174.964 75.5926 174.85 75.5221C174.481 75.2889 174.167 74.9799 173.874 74.6599C173.744 74.5162 173.616 74.3671 173.492 74.2207C172.445 75.7227 170.845 76.9482 169.105 77.4905C167.21 78.0842 165.06 77.8809 163.273 77.016C162.758 76.7666 162.275 76.4629 161.814 76.1213C161.559 75.9315 161.329 75.7119 161.096 75.5004C161.112 75.4598 161.123 75.4191 161.139 75.3811C160.941 75.2103 160.751 75.0314 160.567 74.8416C160.529 74.9148 160.494 74.9907 160.453 75.0612C160.315 75.2971 160.158 75.5221 159.973 75.7255C159.173 76.9482 157.886 77.8267 156.427 78.0653C154.556 78.3716 152.786 77.58 151.427 76.3355C151.045 75.9857 150.687 75.6062 150.348 75.213C150.175 75.0097 150.012 74.7955 149.828 74.6003C149.82 74.5922 149.814 74.584 149.806 74.5759C149.809 74.5732 149.811 74.5677 149.817 74.565C149.608 74.3237 149.424 74.058 149.28 73.7734C149.028 73.9089 148.806 74.1123 148.572 74.2749C148.35 74.4322 148.122 74.584 147.892 74.7277C147.398 75.0368 146.883 75.3079 146.349 75.5411C145.351 75.9749 144.256 76.2352 143.163 76.0806C142.244 75.9505 141.352 75.514 140.655 74.9067C140.289 74.5894 139.97 74.2234 139.709 73.814C139.59 73.6242 139.479 73.4263 139.387 73.2203C139.37 73.1823 139.354 73.1416 139.335 73.101C139.335 73.0955 139.338 73.0901 139.341 73.0874C139.248 72.9546 139.164 72.8163 139.091 72.6726C139.059 72.6156 139.023 72.5587 138.991 72.5018C138.983 72.4855 138.977 72.4692 138.975 72.453C138.975 72.453 138.969 72.453 138.966 72.4557C138.953 72.4638 138.942 72.4747 138.928 72.4855C138.923 72.4909 138.92 72.4991 138.918 72.5045C138.79 72.678 138.644 72.8353 138.47 72.9573C138.305 73.1687 138.148 73.3911 137.966 73.5727C137.605 73.9333 137.226 74.2668 136.797 74.5488C135.932 75.1181 134.946 75.5031 133.918 75.6414C131.874 75.918 129.808 75.1669 128.341 73.7327C127.568 72.979 126.972 72.0382 126.603 71.0214C126.603 71.0052 126.606 70.9916 126.608 70.9753C126.617 70.9048 126.576 70.8344 126.519 70.7828C126.514 70.7639 126.505 70.7476 126.5 70.7313C126.465 70.6175 126.326 70.6337 126.289 70.7205C126.215 70.734 126.15 70.7747 126.11 70.8425C126.031 70.9699 125.955 71.1001 125.879 71.2275C125.792 71.3685 125.738 71.5203 125.679 71.6748C125.627 71.8077 125.575 71.9405 125.524 72.0734C125.516 72.0951 125.51 72.1195 125.502 72.1412C125.413 72.3255 125.334 72.5126 125.277 72.7051C125.125 73.2392 124.998 73.7788 124.892 74.3237C124.683 75.4028 124.567 76.5036 124.54 77.6016C124.486 79.8222 124.74 82.0644 125.413 84.1846C126.047 86.1828 126.996 88.1023 128.276 89.7698C129.512 91.3803 130.968 92.7874 132.617 93.9749C134.251 95.1516 136.092 96.0328 138.017 96.6238C137.822 96.7946 137.847 97.1227 138.017 97.2989C138.215 97.5023 138.489 97.4562 138.693 97.2989C141.341 95.2275 143.942 93.0639 146.767 91.2338C149.554 89.4281 152.596 88.1159 155.828 87.3432C158.965 86.5922 162.286 86.4566 165.485 86.8037C168.514 87.1317 171.491 88.0481 174.24 89.3549C175.793 90.0951 177.263 90.9763 178.684 91.9469C180.061 92.8904 181.376 93.9126 182.501 95.1896C182.772 95.4986 183.228 95.5583 183.604 95.4282C183.694 95.4715 183.794 95.4905 183.889 95.4715C184.372 95.3658 184.825 95.1299 185.269 94.9157C185.73 94.6961 186.169 94.4494 186.603 94.1783C187.46 93.6441 188.281 93.0477 189.065 92.4105C190.608 91.1525 191.963 89.6722 193.132 88.0644C195.664 84.5723 197.172 80.3726 197.505 76.0779C197.7 73.5483 197.443 71.0052 196.93 68.5271L196.933 68.5244Z" fill="#333333"/>
</g>
<path d="M137.516 67.2312C137.572 67.223 137.635 67.2176 137.516 67.2312V67.2312Z" fill="#02C000"/>
<path d="M192.145 70.65C192.145 70.65 192.145 70.6228 192.142 70.6093C192.142 70.593 192.139 70.5768 192.137 70.5605C192.134 70.5361 192.128 70.5117 192.123 70.49C192.137 70.7259 192.145 70.715 192.145 70.65Z" fill="#02C000"/>
<path d="M191.575 68.4729C191.575 68.4729 191.575 68.4675 191.573 68.4648C191.551 68.4268 191.529 68.3618 191.516 68.3292C191.48 68.275 191.472 68.3455 191.575 68.4729Z" fill="#02C000"/>
<path d="M190.794 67.082C190.775 67.0603 190.729 67.0061 190.708 66.9681C190.708 66.9654 190.702 66.9627 190.7 66.96C190.732 67.0738 190.813 67.1281 190.794 67.082Z" fill="#02C000"/>
<path d="M129.837 86.6736C129.865 86.7061 129.886 86.7332 129.905 86.7549C129.878 86.7143 129.848 86.6763 129.837 86.6736Z" fill="#02C000"/>
<path d="M183.87 83.8511C183.762 83.9297 183.797 83.9026 183.87 83.8511V83.8511Z" fill="#02C000"/>
<path d="M194.013 66.7538C192.931 64.8072 191.231 63.2211 189.133 62.508C184.645 60.9789 180.082 63.2075 175.831 64.4276C171.306 65.7263 166.569 66.1818 161.874 66.0842C156.749 65.9784 151.666 65.2247 146.642 64.2541C142.258 63.4054 137.391 63.2753 133.18 65.0457C129.04 66.7864 126.364 71.2328 126.12 75.6278C125.855 80.4592 128.178 85.2039 131.646 88.5794C135.68 92.5108 141.076 94.8343 146.525 95.9595C160.263 98.8009 174.904 95.3278 186.072 86.8795C188.756 84.8488 191.269 82.5117 193.026 79.6431C194.783 76.7746 195.74 73.3151 195.162 69.9992C194.964 68.8659 194.571 67.7597 194.01 66.7511L194.013 66.7538Z" fill="#02C000"/>
<mask id="mask1_1846_2274" style="mask-type:luminance" maskUnits="userSpaceOnUse" x="126" y="61" width="70" height="36">
<path d="M194.013 66.7538C192.931 64.8072 191.231 63.2211 189.133 62.508C184.645 60.9789 180.082 63.2075 175.831 64.4276C171.306 65.7263 166.569 66.1818 161.874 66.0842C156.749 65.9784 151.666 65.2247 146.642 64.2541C142.258 63.4054 137.391 63.2753 133.18 65.0457C129.04 66.7864 126.364 71.2328 126.12 75.6278C125.855 80.4592 128.178 85.2039 131.646 88.5794C135.68 92.5108 141.076 94.8343 146.525 95.9595C160.263 98.8009 174.904 95.3278 186.072 86.8795C188.756 84.8488 191.269 82.5117 193.026 79.6431C194.783 76.7746 195.74 73.3151 195.162 69.9992C194.964 68.8659 194.571 67.7597 194.01 66.7511L194.013 66.7538Z" fill="white"/>
</mask>
<g mask="url(#mask1_1846_2274)">
<path d="M201.013 61.4263H120.421V80.6057H201.013V61.4263Z" fill="white"/>
<path d="M196.933 68.5244C196.846 68.1095 196.258 67.9658 195.979 68.2722C195.745 68.5298 195.518 68.7928 195.29 69.0558C195.274 69.0558 195.255 69.0612 195.238 69.0639C195.238 69.0639 195.241 69.0693 195.244 69.072C195.244 69.072 195.244 69.0747 195.244 69.0775C195.252 69.0991 195.257 69.1208 195.252 69.1425C195.252 69.1534 195.247 69.1615 195.244 69.1696C195.244 69.1696 195.244 69.1724 195.244 69.1751C195.238 69.1886 195.236 69.1995 195.23 69.213C195.203 69.3052 195.173 69.3947 195.141 69.4841C195.217 69.5004 195.285 69.579 195.247 69.6631C195.125 69.9315 194.986 70.1945 194.837 70.4466C194.826 70.4656 194.813 70.4819 194.802 70.5009C194.626 70.9916 194.414 71.4715 194.135 71.9107C194.008 72.1114 193.858 72.3066 193.69 72.4801C193.305 72.9952 192.847 73.4561 192.316 73.8194C190.811 74.8416 188.867 75.2781 187.102 74.7304C186.671 74.5976 186.256 74.3861 185.893 74.1068C185.752 74.0282 185.614 73.9415 185.481 73.852C185.364 73.7734 185.253 73.6893 185.15 73.5971C185.047 73.5049 184.944 73.41 184.846 73.3097C184.762 73.223 184.689 73.1308 184.61 73.0386C184.407 73.3884 184.16 73.711 183.919 74.0336C183.905 74.0499 183.892 74.0689 183.878 74.0851C183.236 75.0368 182.349 75.8095 181.286 76.2975C179.727 77.0106 177.916 76.997 176.341 76.3274C175.961 76.1647 175.585 75.9613 175.227 75.7282C175.219 75.7227 175.208 75.72 175.2 75.7173C175.078 75.6604 174.964 75.5926 174.85 75.5221C174.481 75.2889 174.167 74.9799 173.874 74.6599C173.744 74.5162 173.616 74.3671 173.492 74.2207C172.445 75.7227 170.845 76.9482 169.105 77.4905C167.21 78.0842 165.06 77.8809 163.273 77.016C162.758 76.7666 162.275 76.4629 161.814 76.1213C161.559 75.9315 161.329 75.7119 161.096 75.5004C161.112 75.4598 161.123 75.4191 161.139 75.3811C160.941 75.2103 160.751 75.0314 160.567 74.8416C160.529 74.9148 160.494 74.9907 160.453 75.0612C160.315 75.2971 160.158 75.5221 159.973 75.7255C159.173 76.9482 157.886 77.8267 156.427 78.0653C154.556 78.3716 152.786 77.58 151.427 76.3355C151.045 75.9857 150.687 75.6062 150.348 75.213C150.175 75.0097 150.012 74.7955 149.828 74.6003C149.82 74.5922 149.814 74.584 149.806 74.5759C149.809 74.5732 149.811 74.5677 149.817 74.565C149.608 74.3237 149.424 74.058 149.28 73.7734C149.028 73.9089 148.806 74.1123 148.572 74.2749C148.35 74.4322 148.122 74.584 147.892 74.7277C147.398 75.0368 146.883 75.3079 146.349 75.5411C145.351 75.9749 144.256 76.2352 143.163 76.0806C142.244 75.9505 141.352 75.514 140.655 74.9067C140.289 74.5894 139.97 74.2234 139.709 73.814C139.59 73.6242 139.479 73.4263 139.387 73.2203C139.37 73.1823 139.354 73.1416 139.335 73.101C139.335 73.0955 139.338 73.0901 139.341 73.0874C139.248 72.9546 139.164 72.8163 139.091 72.6726C139.059 72.6156 139.023 72.5587 138.991 72.5018C138.983 72.4855 138.977 72.4692 138.975 72.453C138.975 72.453 138.969 72.453 138.966 72.4557C138.953 72.4638 138.942 72.4747 138.928 72.4855C138.923 72.4909 138.92 72.4991 138.918 72.5045C138.79 72.678 138.644 72.8353 138.47 72.9573C138.305 73.1687 138.148 73.3911 137.966 73.5727C137.605 73.9333 137.226 74.2668 136.797 74.5488C135.932 75.1181 134.946 75.5031 133.918 75.6414C131.874 75.918 129.808 75.1669 128.341 73.7327C127.568 72.979 126.972 72.0382 126.603 71.0214C126.603 71.0052 126.606 70.9916 126.608 70.9753C126.617 70.9048 126.576 70.8344 126.519 70.7828C126.514 70.7639 126.505 70.7476 126.5 70.7313C126.465 70.6175 126.326 70.6337 126.289 70.7205C126.215 70.734 126.15 70.7747 126.11 70.8425C126.031 70.9699 125.955 71.1001 125.879 71.2275C125.792 71.3685 125.738 71.5203 125.679 71.6748C125.627 71.8077 125.575 71.9405 125.524 72.0734C125.516 72.0951 125.51 72.1195 125.502 72.1412C125.413 72.3255 125.334 72.5126 125.277 72.7051C125.125 73.2392 124.998 73.7788 124.892 74.3237C124.683 75.4028 124.567 76.5036 124.54 77.6016C124.486 79.8222 124.74 82.0644 125.413 84.1846C126.047 86.1828 126.996 88.1023 128.276 89.7698C129.512 91.3803 130.968 92.7874 132.617 93.9749C134.251 95.1516 136.092 96.0328 138.017 96.6238C137.822 96.7946 137.847 97.1227 138.017 97.2989C138.215 97.5023 138.489 97.4562 138.693 97.2989C141.341 95.2275 143.942 93.0639 146.767 91.2338C149.554 89.4281 152.596 88.1159 155.828 87.3432C158.965 86.5922 162.286 86.4566 165.485 86.8037C168.514 87.1317 171.491 88.0481 174.24 89.3549C175.793 90.0951 177.263 90.9763 178.684 91.9469C180.061 92.8904 181.376 93.9126 182.501 95.1896C182.772 95.4986 183.228 95.5583 183.604 95.4282C183.694 95.4715 183.794 95.4905 183.889 95.4715C184.372 95.3658 184.825 95.1299 185.269 94.9157C185.73 94.6961 186.169 94.4494 186.603 94.1783C187.46 93.6441 188.281 93.0477 189.065 92.4105C190.608 91.1525 191.963 89.6722 193.132 88.0644C195.664 84.5723 197.172 80.3726 197.505 76.0779C197.7 73.5483 197.443 71.0052 196.93 68.5271L196.933 68.5244Z" fill="#333333"/>
</g>
<path d="M137.516 67.2312C137.572 67.223 137.635 67.2176 137.516 67.2312V67.2312Z" fill="#02C000"/>
<path d="M192.145 70.65C192.145 70.65 192.145 70.6228 192.142 70.6093C192.142 70.593 192.139 70.5768 192.137 70.5605C192.134 70.5361 192.128 70.5117 192.123 70.49C192.137 70.7259 192.145 70.715 192.145 70.65Z" fill="#02C000"/>
<path d="M191.575 68.4729C191.575 68.4729 191.575 68.4675 191.573 68.4648C191.551 68.4268 191.529 68.3618 191.516 68.3292C191.48 68.275 191.472 68.3455 191.575 68.4729Z" fill="#02C000"/>
<path d="M190.794 67.082C190.775 67.0603 190.729 67.0061 190.708 66.9681C190.708 66.9654 190.702 66.9627 190.7 66.96C190.732 67.0738 190.813 67.1281 190.794 67.082Z" fill="#02C000"/>
</g>
<defs>
<clipPath id="clip0_1846_2274">
<rect width="142.3" height="127.971" fill="white" transform="translate(90.6084)"/>
</clipPath>
</defs>
</svg>
