<?xml version="1.0" encoding="UTF-8"?><svg id="b" xmlns="http://www.w3.org/2000/svg" xmlns:xlink="http://www.w3.org/1999/xlink" viewBox="0 0 1831.74 558.02"><defs><mask id="d" x="128.75" y="267.88" width="351.42" height="157.01" maskUnits="userSpaceOnUse"><g id="e"><path d="M449.64,291.11c-4.72-8.49-12.13-15.4-21.28-18.51-19.56-6.67-39.46,3.05-58,8.37-19.73,5.66-40.38,7.65-60.86,7.22-22.34-.46-44.51-3.75-66.42-7.98-19.12-3.7-40.34-4.27-58.7,3.45-18.05,7.59-29.72,26.98-30.79,46.14-1.16,21.07,8.97,41.76,24.09,56.47,17.59,17.14,41.12,27.28,64.88,32.18,59.9,12.39,123.75-2.76,172.44-39.59,11.71-8.86,22.66-19.05,30.33-31.56,7.66-12.51,11.83-27.59,9.32-42.05-.86-4.94-2.58-9.77-5.02-14.16h.01Z" style="fill:#fff;"/></g></mask><mask id="f" x="128.75" y="267.88" width="351.42" height="157.01" maskUnits="userSpaceOnUse"><g id="g"><path d="M449.64,291.11c-4.72-8.49-12.13-15.4-21.28-18.51-19.56-6.67-39.46,3.05-58,8.37-19.73,5.66-40.38,7.65-60.86,7.22-22.34-.46-44.51-3.75-66.42-7.98-19.12-3.7-40.34-4.27-58.7,3.45-18.05,7.59-29.72,26.98-30.79,46.14-1.16,21.07,8.97,41.76,24.09,56.47,17.59,17.14,41.12,27.28,64.88,32.18,59.9,12.39,123.75-2.76,172.44-39.59,11.71-8.86,22.66-19.05,30.33-31.56,7.66-12.51,11.83-27.59,9.32-42.05-.86-4.94-2.58-9.77-5.02-14.16h.01Z" style="fill:#fff;"/></g></mask></defs><g id="c"><path d="M1195.53,400.93l38.77-96.31h77.75l27.52,89.45,27.52-89.45h43.38l27.53,89.45,27.52-89.45h43.14v5.11l-48.68,143.17-1.18,3.15h-41.4l-1.34-3.18-27.27-89.11-27.27,89.11-1.12,3.18h-42l-.8-3.15-44.53-130.96-80.57,191.83h-43.83v-5.2l.19-.45,23.28-54.51-57.24-143.83v-5.17h43.88l36.76,96.31ZM905.24,300c21.62,0,38.93,6.11,51.6,18.57,12.9,12.5,19.21,30.03,19.21,52.23v85.24h-38.57v-13.89c-4.97,4.68-10.64,8.64-17,11.9l-.04.02c-9.02,4.41-19.11,6.59-30.21,6.59-10.32,0-19.64-1.99-27.89-6.02h-.01s-.01-.01-.01-.01c-8.06-4.03-14.46-9.71-19.13-17.02-4.69-7.34-7.02-15.69-7.02-24.96,0-14.84,5.05-26.8,15.27-35.59,10.33-8.91,25.13-14.02,44.08-15.58l37.35-3.22c-1.04-5-3.49-9.26-7.32-12.84-5.27-4.92-11.97-7.43-20.3-7.43-7.86,0-13.9,2-18.37,5.78l-.04.03c-4.68,3.78-7.27,7.84-8.1,12.15l-.38,1.95h-5.4l-35.52-7.48.52-2.37c3.02-13.67,10.47-25.11,22.23-34.28h0s0-.01,0-.01c12.05-9.23,27.12-13.77,45.05-13.77ZM1051.47,300c15.98,0,29.65,3.95,40.9,11.97l1.06.74c10.88,7.79,18.06,18.53,21.55,32.1l.62,2.41-35.8,7.85-.47-.08-4.65-.85-.41-1.45c-1.15-4.09-3.95-7.58-8.73-10.42h-.01s-.02-.02-.02-.02c-4.59-2.83-9.83-4.26-15.77-4.26-5.47,0-9.96,1-13.57,2.88-3.21,1.77-4.52,4.01-4.52,6.84,0,1.73.7,3.56,2.47,5.51,1.76,1.58,4.48,2.9,8.38,3.8l.81.18h.02s.02,0,.02,0l27.71,6.35h0c15.01,3.51,26.68,8.73,34.78,15.81l.77.67c7.81,7.02,11.62,16.65,11.62,28.58,0,10.46-2.83,19.72-8.53,27.66-5.67,7.9-13.44,13.93-23.23,18.12-9.78,4.19-20.88,6.26-33.27,6.26-16.73,0-31.25-3.84-43.43-11.63l-.04-.02c-12-8-20.05-18.86-24.06-32.49l-.7-2.39,38.51-9.71,5.39,1.35.38,1.33c1.36,4.77,4.23,8.51,8.73,11.3l.45.26c4.68,2.66,10.07,4.02,16.22,4.02,6.23,0,11.27-1.19,15.24-3.43,3.86-2.37,5.44-5.13,5.44-8.32,0-2.98-1.05-5.14-3.12-6.77-2.28-1.79-5.92-3.33-11.14-4.45h-.01s-27.71-6.07-27.71-6.07h-.01c-13.95-3.15-24.99-8.5-32.9-16.21l-.02-.02-.02-.02c-7.76-7.97-11.65-17.72-11.65-29.1,0-9.41,2.58-17.7,7.78-24.74l.51-.68c5.48-7.3,12.95-12.92,22.32-16.9h.02c9.57-3.99,20.28-5.96,32.1-5.96ZM1580.85,300c15.19,0,28.53,3.46,39.93,10.46,11.37,6.98,20.23,16.75,26.57,29.24,6.36,12.52,9.49,27.05,9.49,43.52v7.92l-5.74,5.74h-103.54c.8,2.82,1.99,5.54,3.55,8.16,3.45,5.25,7.88,9.5,13.33,12.77,5.59,3.25,11.62,4.86,18.12,4.87,5.65,0,11.18-1.67,16.61-5.11,5.41-3.43,9.65-8.02,12.73-13.82l1.07-2.3,5,1.02.44.18,33.46,13.95-1.03,2.25c-6.15,13.49-15.22,23.88-27.2,31.07-11.78,7.19-25.51,10.74-41.08,10.74s-29.72-3.35-41.87-10.12h-.01c-11.93-6.77-21.29-16.23-28.05-28.34-6.77-12.14-10.11-26.13-10.11-41.87s3.24-29.7,9.81-41.84h.01s0-.03,0-.03c6.75-12.11,16-21.56,27.74-28.33l1.11-.63c11.51-6.36,24.75-9.51,39.64-9.51ZM1715.84,242.68l.15.41v71.65c3.49-2.79,7.32-5.3,11.48-7.52,9.05-4.83,19.36-7.21,30.86-7.21,13.87,0,26.34,3.47,37.33,10.45l1.04.64c10.67,6.73,19.09,15.99,25.24,27.71,6.56,12.13,9.8,26.1,9.8,41.81s-3.25,29.41-9.81,41.54c-6.35,11.9-15.11,21.36-26.25,28.33h-.01c-10.99,6.8-23.46,10.18-37.34,10.18-11.48,0-21.78-2.28-30.82-6.9l-.04-.02c-5.34-2.85-10.13-6.14-14.36-9.86v12.17h-40.88v-212.35l42.08-5.1,1.53,4.07ZM889.3,458.26h.93c-.48,0-.96,0-1.44-.01.17,0,.34.01.5.01ZM1051.68,458.25h1.53s-2.24-.02-2.24-.02c.23,0,.47.02.71.02ZM1581.15,458.26h1.44c-.8,0-1.59-.01-2.37-.03.31,0,.62.02.93.03ZM827.98,290.95h-97.85v39.36h89.19v41.74h-89.19v42.25h97.85v41.74h-141.61v-206.84h141.61v41.74ZM1084.23,452.74c.14-.06.28-.11.41-.16l.89-.38c-.43.18-.87.36-1.3.54ZM1721.19,447.14c.84.57,1.69,1.13,2.57,1.68-.96-.61-1.9-1.22-2.82-1.86l.25.18ZM1715.66,442.91c.36.31.73.61,1.1.91-.44-.36-.87-.72-1.3-1.09l.2.18ZM1053.39,425.06l1.26.02c-.55,0-1.1-.02-1.64-.04.13,0,.25.02.39.02ZM1581.29,425.05l1.29.02c-.59,0-1.17-.02-1.74-.04.15,0,.3.02.45.02ZM900.83,396.87c-8.13.76-13.41,2.43-16.31,4.68-2.7,2.23-4,5.01-4,8.51,0,3.29,1.5,6.05,4.97,8.37,3.56,2.19,8.17,3.37,13.99,3.37,6.3,0,11.9-1.61,16.88-4.81l.04-.02c5.26-3.27,9.41-7.41,12.47-12.45,1.96-3.35,3.29-6.79,3.99-10.32l-32.02,2.67ZM1751.41,339.44c-7.3,0-13.69,1.73-19.24,5.13-5.36,3.4-9.59,8.16-12.67,14.32v.03c-3.07,5.94-4.65,13.06-4.65,21.42s1.57,15.28,4.65,21.44c3.09,6.17,7.31,10.92,12.67,14.32l.53.31c5.43,3.2,11.65,4.82,18.72,4.82,7.51,0,13.87-1.74,19.21-5.11,5.38-3.4,9.61-8.16,12.7-14.34,3.08-6.16,4.66-13.29,4.66-21.44s-1.58-15.47-4.64-21.42v-.03c-3.1-6.18-7.34-10.94-12.71-14.34-5.33-3.38-11.7-5.11-19.21-5.11ZM1035.88,419.89c.28.19.57.38.87.57.05.03.1.06.16.09l-.16-.09c-.3-.18-.59-.37-.87-.56ZM1734.36,420.01c.27.13.55.24.82.36-.31-.14-.62-.28-.93-.42l.11.06ZM1603.86,417.19c.16-.13.32-.27.48-.4-.16.13-.32.27-.48.4ZM727.74,416.7h0v-47.05h0v47.05ZM838.68,408.86c-.01.24-.02.47-.04.71.01-.28.03-.56.05-.83v.12ZM1829.31,382.64c0-.2.02-.4.02-.6v-1.42s-.02,2.02-.02,2.02ZM1072.63,366.42c-.24-.06-.48-.12-.73-.18l-1.38-.33c.71.17,1.42.34,2.11.51ZM893.98,364.04c-.35.04-.69.07-1.03.11.91-.09,1.84-.18,2.77-.26l-1.74.15ZM1545.37,361.06c-.23.83-.44,1.67-.62,2.53.19-.91.41-1.81.66-2.69l-.05.15ZM1581.72,338c-6.94,0-13.07,1.55-18.44,4.59l-.03.02h-.03c-5.38,2.88-9.57,6.89-12.61,12.08h0c-1.16,2.02-2.09,4.19-2.78,6.51h65.34c-.75-2.62-1.82-5.06-3.19-7.32l-.02-.03v-.03c-2.87-5-6.78-8.82-11.76-11.49l-.05-.02-.04-.03c-4.79-2.84-10.24-4.28-16.38-4.28ZM991.15,349.3c0,.16.01.31.02.47-.01-.49-.03-.98-.03-1.47v1.01ZM1513.88,340.75c-.09.18-.18.36-.27.54.27-.53.53-1.06.81-1.58l-.55,1.04ZM1065.86,339.68c.3.17.61.35.91.54h0c-.6-.37-1.21-.72-1.83-1.04l.92.5ZM1598.4,339.69c.31.17.62.34.92.53h0c-.61-.36-1.23-.7-1.85-1.02l.93.49ZM999.82,323.21c-.3.37-.59.75-.88,1.13-.65.84-1.26,1.7-1.82,2.58.57-.88,1.17-1.74,1.82-2.58.29-.38.58-.76.88-1.13ZM1713.59,319.99h0c.09-.07.17-.16.26-.24-.09.08-.18.16-.26.24ZM951.55,317.02c-.32-.27-.65-.53-.98-.79l-.16-.12c.38.3.76.61,1.13.92ZM1621.04,313.47c-.16-.11-.33-.22-.49-.32l-1.02-.64,1.51.96ZM1019.45,308.54c-.14.06-.28.12-.41.19.41-.19.84-.37,1.26-.55l-.85.37ZM1053.71,302.44c-.26,0-.52-.02-.78-.02h-1.45s2.24.02,2.24.02Z" style="fill:#fff;"/><path d="M1195.67,311.76c-.99.83-2.46.73-3.32-.22l-31.44-34.61c-.93-1.03-.8-2.63.28-3.49l17.78-14.17c.96-.77,2.35-.68,3.21.2l15.56,15.91s.05.05.06.08h0c.16.24.47.32.71.18.05-.03.1-.07.15-.12l47.38-54.92c.97-1.13,2.72-1.11,3.67.04l20.76,25.15c.84,1.02.7,2.52-.31,3.37l-47.02,39.46-18.6,15.68-8.87,7.47Z" style="fill:#fff;"/><path d="M473.4,540.54c-.12-.12-.28-.16-.45-.12-.07.02-.14.04-.21.06-.2.05-.35.21-.4.4-.06.2,0,.41.16.57.15.16.36.2.57.16.19-.06.35-.22.4-.4.02-.07.04-.14.06-.21.05-.16,0-.33-.12-.45Z" style="fill:#21d2f2;"/><path d="M618.75,224.63c.9-1.13.56-2.53-.8-3.06-5.4-2.13-11.02-3.5-16.81-3.9-.23-.01-.47-.01-.71-.02.27-1.36.53-2.72.77-4.06.62-3.51.97-7.05,1.16-10.6.17-3.17.29-6.41-.48-9.49.08-.2.17-.39.25-.59.36-.93-.75-1.97-1.66-1.65-.33.12-.66.24-.98.35-.08,0-.16,0-.24.02-.07.02-.13.06-.19.08-.13-.06-.26-.09-.4-.09-1.88.09-3.87,1.04-5.63,1.68-1.72.63-3.4,1.38-5.08,2.14-1.45.66-2.9,1.36-4.33,2.08-1.69.66-3.37,1.34-5.06,2-.83.33-1.68.64-2.52.97-.36-1.89-.85-3.76-1.4-5.59-.78-2.58-1.66-5.13-2.7-7.6-.94-2.26-2.05-5.12-4.24-6.37-.53-.31-1.1-.12-1.47.31-.15-.06-.34-.04-.52.09-7.67,6.1-14.16,13.88-18.45,22.72-3.18,1.08-6.35,2.25-9.48,3.45-14.33,5.54-28.14,12.39-41.21,20.44-.02-.07-.05-.15-.06-.22-3.34-11.02-7.43-21.79-12.12-32.31-4.49-10.07-9.88-19.68-15.63-29.09-5.73-9.39-11.3-18.83-17.72-27.77-3.58-5-7.32-9.9-11.35-14.54-1.95-2.25-3.98-4.61-6.18-6.79-5.59-7.01-11.6-13.69-18.11-19.86-5.46-5.17-11.09-10.12-17.19-14.54-2.38-1.73-4.81-3.36-7.28-4.93,2.55-3.78,5.46-7.34,8.54-10.71.38-.11.77-.2,1.15-.32.66-.19.66-.92.25-1.28.19-.57-.42-1.31-.99-.87-.26.2-.5.41-.76.61-3.78-.12-7.64.7-11.27,1.69-3.08.84-6.09,2.06-8.96,3.48,1.82-6.2,4.25-12.21,7.35-17.95.39-.28.79-.56,1.17-.86.35-.28-.05-.77-.4-.7-3.8.76-7.25,2.84-10.51,4.88-3.32,2.08-6.38,4.68-9.2,7.41-1.36,1.31-2.65,2.68-3.89,4.09-.04-.21-.07-.43-.12-.63-.43-2.25-.95-4.48-1.54-6.69-1.26-4.66-2.88-9.27-4.89-13.65-1.97-4.3-4.39-8.43-7.05-12.34-1.3-1.92-2.62-3.93-4.23-5.59-1.49-1.54-3.05-3-4.65-4.42,0-.01,0-.04-.01-.05-.34-.82-1.7-1.08-1.93,0-.3,1.42-.04,2.93.06,4.36.08,1.37.15,2.73.25,4.1.2,2.93.51,5.86.77,8.78.13,1.5.26,3.01.39,4.52-.66-.54-1.35-1.06-2.03-1.58-5.96-4.48-12.25-8.61-18.49-12.67-12.76-8.32-26.07-15.78-39.83-22.33-3.87-1.84-7.76-3.61-11.69-5.3-1.99-.85-3.95-1.63-6.02-2.28-2.03-.64-4.09-1.48-6.22-1.56-.14,0-.27.02-.39.07-.17.04-.31.13-.4.27-.43.44-.54,1.19-.02,1.64.86.76,1.82,1.3,2.81,1.81,4.24,4.16,8.3,8.46,11.89,13.23,1.12,1.49,2.22,3,3.27,4.55-4.22-1.4-8.51-2.53-12.87-3.39-9.45-1.88-19.08-2.48-28.68-1.76-2.68.2-5.37.51-8.03.91-2.7.4-5.51.74-8.04,1.75-.85.34-.83,1.75.24,1.71.96-.04,1.9-.15,2.85-.28,6.34,4,12.27,8.77,17.56,14.08,3.24,3.25,6.14,6.8,8.88,10.45-1.27-.48-2.53-.93-3.77-1.34-4.48-1.47-9.08-2.57-13.74-3.27-4.65-.71-9.35-1.09-14.06-1.06-2.4.01-4.8.19-7.19.46-2.1.24-4.86.24-6.73,1.27-.27.15-.43.4-.51.67-.08.01-.17.02-.25.04-.43.09-.57.69-.26.97,1.1,1.02,2.65,1.55,4.06,2.05,1.66.59,3.29,1.23,4.89,1.93,3.05,1.34,6.05,2.87,8.94,4.52,3.87,2.21,7.52,4.75,10.94,7.6-1.74.99-3.46,2.02-5.14,3.12-3.51,2.29-6.92,4.75-10.2,7.35-6.53,5.17-12.82,10.86-17.8,17.56-.33.44-.25.89,0,1.23-.7.41-1.27.92-1.49,1.58-.05.13.02.31.15.38,1.64.83,4.3-.65,5.91-1.17,2.35-.77,4.74-1.48,7.12-2.19,4.59-1.36,9.25-2.51,13.94-3.43,1.42-.28,2.85-.53,4.28-.78-51.57,32.51-90.73,83.61-108.46,142.08-.53.59,7.61-33.74-1.1,2.4-11.46-10.77-26.51-24.05-42.38-32.42-.11-.06-.21-.09-.32-.14-.62-4.48-1.48-8.94-2.61-13.32-.58-2.23-1.22-4.46-1.93-6.66-.3-.92-.61-1.93-1.11-2.8,0-.04-.01-.08-.02-.12-.04-.21-.19-.35-.37-.46-.33-.45-.73-.83-1.24-1.11-3.83-2.1-6.24,3.82-7.59,6.27-.84,1.54-1.64,3.11-2.42,4.68-.61.87-1.22,1.76-1.76,2.68-.32.54-.77,1.25-1.15,2-3.66-5.92-7.97-11.39-12.98-16.26-2.47-2.4-6.76-6.99-10.16-3.27-1.32,1.45-1.53,3.56-1.84,5.41-.41,2.38-.72,4.79-.87,7.2-.22,3.39-.02,6.85.6,10.2-4-2.57-8.35-4.49-13.03-5.82-1.69-.48-3.71-1.13-5.34-.12-1.49.92-1.77,2.74-1.57,4.35.52,4.08,1.79,8.18,3.17,12.05.78,2.18,1.62,4.34,2.67,6.41.57,1.11,1.13,2.25,1.77,3.33-3.05.15-6.11.33-9.13.72-1.64.21-3.26.73-4.29,2.12-1.08,1.45-1,3.37-.44,5.01,1.22,3.56,3.71,6.88,6.03,9.79,2.39,3,5.18,5.7,8.03,8.28,1.56,1.41,3.22,2.85,5.02,3.93.92.56,1.86,1.1,2.83,1.56.46.22.85.32,1.23.33,1.23,5.4,3.05,10.63,4.66,15.92,1.68,5.53,3.43,11.02,5.4,16.44,1.94,5.32,3.71,10.68,5.73,15.96,2.2,5.76,4.66,11.31,7.47,16.79,9.78,19.05,22.27,36.96,37.42,52.14,3.37,3.38,6.89,6.61,10.56,9.7-.01.94-.01,1.9-.02,2.85,0,3.36.07,6.71.24,10.06.32,6.69.96,13.37,1.83,20,1.79,13.44,5.44,26.78,9.43,39.71,7.57,24.48,17.89,48.33,30.02,70.89,2.15,4.01,4.45,7.94,6.82,11.83-2.51,1.79-4.81,3.83-6.9,6.11-1.7,1.86-3.26,3.86-4.66,5.96-1.17,1.76-2.38,3.64-3.12,5.65-.74.47-1.05,1.62-.24,2.19.32.63,1.08.95,1.8.84,7.47,3.41,15.24,6.42,23.09,8.82,8.41,2.58,17.32,3.95,26.07,4.74,17.72,1.6,35.77-.04,52.92-4.84,9.29-2.6,18.3-6.16,26.83-10.64-.33-1.3-.33-1.9-.53-3.27-.27-2.2-.67-4.36-.99-6.55-.41-2.88-.47-5.82-.25-8.73.22-2.81.72-5.57,1.22-8.34.48-2.67,1.5-5.11,2.78-7.5,4.59-8.57,13.18-15.75,22.69-18.19,11.21-2.89,23.34-2.3,34.75-1.09,5.39.57,10.89,1.77,15.78,4.18,4.6,2.26,8.44,5.48,11.64,9.48,8.01,10.01,6.54,23.98,4.85,35.96,1.33.96,1.93.96,2.94,1.33.84.74,1.8,1.33,2.85,1.86.75.39,1.56.71,2.33,1.09,1.09.54,2.03,1.19,3.18,1.67,3.66,1.5,7.39,2.97,11.19,4.09,3.93,1.16,7.98,2.37,12.02,3.04,1.89.32,3.82.42,5.72.51,2.05.08,4.09.5,6.13.73,16.17,1.93,32.25,2.47,48.41.07,4.42-.66,8.86-1.44,13.2-2.54,2.18-.56,4.33-1.15,6.48-1.8,2.08-.61,4.29-1.38,5.97-2.77.12-.09.17-.21.18-.33.17-.08.34-.16.51-.24.47-.22.93-.44,1.42-.62.3-.12.66-.21.94-.38.35-.21.48-.52.63-.87.24-.57-.26-1.16-.76-1.32-.45-.15-.83-.06-1.21.12-.53-.93-1.48-1.78-2.16-2.47-1.16-1.15-2.34-2.26-3.58-3.31-2.4-2.05-5.2-3.73-7.95-5.29-.58-.33-1.19-.64-1.79-.97,1.42-1.4,2.76-2.88,4.1-4.36,3.06-3.38,5.8-7.08,8.4-10.83,5.19-7.48,9.62-15.47,13.42-23.75,3.22-7.02,5.97-14.27,8.34-21.63.73-1.75,1.45-3.51,2.15-5.3,4.23-10.91,8.04-22.23,10.33-33.72.08-.41.15-.83.24-1.24,3.12-12.48,5.32-25.22,6.64-38.02,1.27-12.2,2.15-24.51,1.42-36.77.8-.57,1.61-1.12,2.42-1.69,4.03-2.77,7.65-6.09,11.23-9.42,7.31-6.79,14.18-14.03,20.67-21.59,13.06-15.2,24.99-31.42,35.57-48.46,1.34-2.15,2.6-4.33,3.78-6.53.45-.12.91-.24,1.35-.38,2.7-.89,5.34-1.97,7.91-3.2,2.55-1.22,5.04-2.58,7.38-4.16,2.48-1.68,4.66-3.75,7.11-5.49.64-.45.86-1.18.5-1.89-.93-1.79-3.21-3.2-4.77-4.43-1.55-1.22-3.15-2.39-4.79-3.49,1.7-1.44,3.38-2.91,5-4.45,4.65-4.37,8.95-9.09,12.9-14.09h-.01Z" style="fill:#606060;"/><path d="M282.82,190.77c-11.43-42.04-70.82-43.84-100.6-21.63-13.73,10.24-22.59,28.16-18.54,44.81,3.69,15.13,17.01,26.32,31.46,32.15,26.81,10.82,66.74,7.61,82.84-19.44,6.72-11.29,8-24.21,4.84-35.87h0Z" style="fill:#fff;"/><path d="M256.55,228.37s.01-.01.02-.02c.19-.22.45-.43.71-.61,0-.09-.27.05-.73.63h0Z" style="fill:#fff;"/><path d="M237.09,167.12c-.19-.02-.37-.04-.56-.06-.05,0,.07.01.57.06h-.01Z" style="fill:#fff;"/><path d="M429.17,189.49c-12.62-26.9-47.46-39.96-75.11-30.29-15.95,5.58-29.21,19.31-32.61,35.86-3.92,19.13,5.92,39.64,22,50.71,26.08,17.95,69.63,14.47,85.58-15.44,3.31-6.22,5.17-13.13,5.14-20.2-.02-7.22-1.95-14.14-5-20.64h-.01Z" style="fill:#fff;"/><path d="M417.64,213.62s0-.07.01-.11c0-.06,0-.12.01-.17-.05.25-.07.45-.1.58.02-.09.05-.2.06-.3h.01Z" style="fill:#fff;"/><path d="M253.38,207.79c-.21-4.39-2.34-8.56-5.62-11.49-1.25-1.12-2.72-2.08-4.37-2.4-2.96-.57-5.99,1.09-7.84,3.45-4.73,6.07-5.24,17.72-.34,23.83,2.64,3.3,6.34,4.66,10.2,2.44,1.95-1.12,3.46-2.88,4.68-4.78,1.8-2.81,3.04-6.02,3.26-9.35.04-.57.05-1.13.02-1.7ZM243.65,213.64c-1.87,1.14-4.35-1.27-2.4-6.44,2.51-6.63,4.34-2.78,4.08,2.59-.09,2.07-.82,3.33-1.68,3.84h0Z" style="fill:#333;"/><path d="M368.17,207.9c-.41-2.73-1.41-5.37-3.49-7.22-4.01-3.59-9.88-3.62-13.45.59-2.9,3.4-3.5,8.26-2.85,12.69.34,2.32,1,4.62,2.28,6.58,1.28,1.96,3.2,3.57,5.47,4.13,8.52,2.09,12.4-6.7,12.27-13.81-.01-.97-.08-1.97-.24-2.96ZM360.71,213.29c-.71,1.58-2.45,2.21-3.31.25-.33-.76-.33-1.61-.22-2.42.12-.93.5-3.89,1.53-4.29,2.45-.95,2.49,4.79,2.18,5.95-.05.18-.11.35-.19.52h.02Z" style="fill:#333;"/><path d="M169.81,377.97c.12.14.21.26.3.35-.12-.18-.25-.34-.3-.35Z" style="fill:#02c000;"/><path d="M449.64,291.11c-4.72-8.49-12.13-15.4-21.28-18.51-19.56-6.67-39.46,3.05-58,8.37-19.73,5.66-40.38,7.65-60.86,7.22-22.34-.46-44.51-3.75-66.42-7.98-19.12-3.7-40.34-4.27-58.7,3.45-18.05,7.59-29.72,26.98-30.79,46.14-1.16,21.07,8.97,41.76,24.09,56.47,17.59,17.14,41.12,27.28,64.88,32.18,59.9,12.39,123.75-2.76,172.44-39.59,11.71-8.86,22.66-19.05,30.33-31.56,7.66-12.51,11.83-27.59,9.32-42.05-.86-4.94-2.58-9.77-5.02-14.16h.01Z" style="fill:#02c000;"/><g style="mask:url(#d);"><path d="M480.17,267.88H128.75v83.63h351.42v-83.63Z" style="fill:#fff;"/><path d="M462.38,298.83c-.38-1.81-2.94-2.44-4.16-1.1-1.02,1.12-2.01,2.27-3,3.42-.07,0-.16.02-.23.04,0,0,.01.02.02.04v.02c.04.09.06.19.04.28,0,.05-.02.08-.04.12v.02c-.02.06-.04.11-.06.17-.12.4-.25.79-.39,1.18.33.07.63.41.46.78-.53,1.17-1.13,2.32-1.78,3.42-.05.08-.11.15-.16.24-.77,2.14-1.69,4.23-2.91,6.15-.56.87-1.21,1.73-1.94,2.48-1.68,2.25-3.68,4.26-5.99,5.84-6.56,4.46-15.04,6.36-22.74,3.97-1.88-.58-3.69-1.5-5.27-2.72-.62-.34-1.22-.72-1.8-1.11-.51-.34-.99-.71-1.44-1.11-.45-.4-.9-.82-1.33-1.25-.36-.38-.68-.78-1.03-1.18-.89,1.53-1.96,2.93-3.01,4.34-.06.07-.12.15-.18.22-2.8,4.15-6.67,7.52-11.3,9.65-6.8,3.11-14.7,3.05-21.56.13-1.66-.71-3.3-1.6-4.86-2.61-.04-.02-.08-.04-.12-.05-.53-.25-1.03-.54-1.53-.85-1.61-1.02-2.98-2.36-4.26-3.76-.57-.63-1.12-1.28-1.67-1.92-4.56,6.55-11.54,11.89-19.13,14.26-8.26,2.59-17.64,1.7-25.43-2.07-2.25-1.09-4.35-2.41-6.36-3.9-1.11-.83-2.12-1.79-3.13-2.71.07-.18.12-.35.19-.52-.86-.74-1.69-1.52-2.49-2.35-.17.32-.32.65-.5.96-.6,1.03-1.29,2.01-2.09,2.9-3.49,5.33-9.1,9.16-15.46,10.2-8.16,1.34-15.88-2.12-21.8-7.54-1.67-1.53-3.23-3.18-4.71-4.89-.76-.89-1.47-1.82-2.27-2.67-.04-.04-.06-.07-.09-.11.01-.01.02-.04.05-.05-.91-1.05-1.71-2.21-2.34-3.45-1.1.59-2.07,1.48-3.09,2.19-.97.69-1.96,1.35-2.97,1.97-2.15,1.35-4.4,2.53-6.73,3.55-4.35,1.89-9.13,3.03-13.89,2.35-4.01-.57-7.9-2.47-10.94-5.12-1.6-1.38-2.99-2.98-4.13-4.76-.52-.83-1-1.69-1.41-2.59-.07-.17-.14-.34-.22-.52,0-.02.01-.05.02-.06-.4-.58-.77-1.18-1.09-1.81-.14-.25-.3-.5-.44-.74-.04-.07-.06-.14-.07-.21,0,0-.02,0-.04.01-.06.04-.11.08-.17.13-.02.02-.04.06-.05.08-.56.76-1.19,1.44-1.95,1.97-.72.92-1.41,1.89-2.2,2.68-1.57,1.57-3.23,3.03-5.1,4.26-3.77,2.48-8.07,4.16-12.56,4.76-8.91,1.21-17.92-2.07-24.32-8.32-3.37-3.29-5.97-7.39-7.58-11.82,0-.07.01-.13.02-.2.04-.31-.14-.61-.39-.84-.02-.08-.06-.15-.08-.22-.15-.5-.76-.43-.92-.05-.32.06-.6.24-.78.53-.34.56-.67,1.12-1,1.68-.38.61-.61,1.28-.87,1.95-.22.58-.45,1.16-.67,1.74-.04.09-.06.2-.09.3-.39.8-.73,1.62-.98,2.46-.66,2.33-1.22,4.68-1.68,7.06-.91,4.71-1.42,9.5-1.54,14.29-.24,9.68.87,19.46,3.81,28.71,2.77,8.71,6.9,17.08,12.48,24.35,5.39,7.02,11.74,13.16,18.93,18.34,7.13,5.13,15.16,8.97,23.55,11.55-.85.75-.74,2.18,0,2.94.86.89,2.06.69,2.94,0,11.55-9.03,22.89-18.47,35.21-26.45,12.15-7.87,25.42-13.6,39.51-16.96,13.68-3.27,28.16-3.87,42.11-2.35,13.21,1.43,26.19,5.43,38.17,11.13,6.78,3.23,13.18,7.07,19.38,11.3,6,4.12,11.74,8.57,16.65,14.14,1.18,1.35,3.17,1.61,4.81,1.04.39.19.83.27,1.24.19,2.11-.46,4.08-1.49,6.02-2.42,2.01-.96,3.92-2.03,5.81-3.21,3.74-2.33,7.32-4.93,10.74-7.71,6.73-5.48,12.64-11.94,17.73-18.95,11.04-15.23,17.62-33.54,19.07-52.27.85-11.03-.27-22.12-2.51-32.93h.01Z" style="fill:#333;"/></g><path d="M441.5,308.1s0-.12-.01-.18c0-.07-.01-.14-.02-.21-.01-.11-.04-.21-.06-.31.06,1.03.1.98.1.7Z" style="fill:#02c000;"/><path d="M439.01,298.61s0-.02-.01-.04c-.1-.17-.19-.45-.25-.59-.16-.24-.19.07.26.63Z" style="fill:#02c000;"/><path d="M435.61,292.55c-.08-.09-.28-.33-.38-.5,0-.01-.02-.02-.04-.04.14.5.5.73.41.53Z" style="fill:#02c000;"/><path d="M169.81,377.97c.12.14.21.26.3.35-.12-.18-.25-.34-.3-.35Z" style="fill:#02c000;"/><path d="M449.64,291.11c-4.72-8.49-12.13-15.4-21.28-18.51-19.56-6.67-39.46,3.05-58,8.37-19.73,5.66-40.38,7.65-60.86,7.22-22.34-.46-44.51-3.75-66.42-7.98-19.12-3.7-40.34-4.27-58.7,3.45-18.05,7.59-29.72,26.98-30.79,46.14-1.16,21.07,8.97,41.76,24.09,56.47,17.59,17.14,41.12,27.28,64.88,32.18,59.9,12.39,123.75-2.76,172.44-39.59,11.71-8.86,22.66-19.05,30.33-31.56,7.66-12.51,11.83-27.59,9.32-42.05-.86-4.94-2.58-9.77-5.02-14.16h.01Z" style="fill:#21d2f2;"/><g style="mask:url(#f);"><path d="M480.17,267.88H128.75v83.63h351.42v-83.63Z" style="fill:#fff;"/><path d="M462.38,298.83c-.38-1.81-2.94-2.44-4.16-1.1-1.02,1.12-2.01,2.27-3,3.42-.07,0-.16.02-.23.04,0,0,.01.02.02.04v.02c.04.09.06.19.04.28,0,.05-.02.08-.04.12v.02c-.02.06-.04.11-.06.17-.12.4-.25.79-.39,1.18.33.07.63.41.46.78-.53,1.17-1.13,2.32-1.78,3.42-.05.08-.11.15-.16.24-.77,2.14-1.69,4.23-2.91,6.15-.56.87-1.21,1.73-1.94,2.48-1.68,2.25-3.68,4.26-5.99,5.84-6.56,4.46-15.04,6.36-22.74,3.97-1.88-.58-3.69-1.5-5.27-2.72-.62-.34-1.22-.72-1.8-1.11-.51-.34-.99-.71-1.44-1.11-.45-.4-.9-.82-1.33-1.25-.36-.38-.68-.78-1.03-1.18-.89,1.53-1.96,2.93-3.01,4.34-.06.07-.12.15-.18.22-2.8,4.15-6.67,7.52-11.3,9.65-6.8,3.11-14.7,3.05-21.56.13-1.66-.71-3.3-1.6-4.86-2.61-.04-.02-.08-.04-.12-.05-.53-.25-1.03-.54-1.53-.85-1.61-1.02-2.98-2.36-4.26-3.76-.57-.63-1.12-1.28-1.67-1.92-4.56,6.55-11.54,11.89-19.13,14.26-8.26,2.59-17.64,1.7-25.43-2.07-2.25-1.09-4.35-2.41-6.36-3.9-1.11-.83-2.12-1.79-3.13-2.71.07-.18.12-.35.19-.52-.86-.74-1.69-1.52-2.49-2.35-.17.32-.32.65-.5.96-.6,1.03-1.29,2.01-2.09,2.9-3.49,5.33-9.1,9.16-15.46,10.2-8.16,1.34-15.88-2.12-21.8-7.54-1.67-1.53-3.23-3.18-4.71-4.89-.76-.89-1.47-1.82-2.27-2.67-.04-.04-.06-.07-.09-.11.01-.01.02-.04.05-.05-.91-1.05-1.71-2.21-2.34-3.45-1.1.59-2.07,1.48-3.09,2.19-.97.69-1.96,1.35-2.97,1.97-2.15,1.35-4.4,2.53-6.73,3.55-4.35,1.89-9.13,3.03-13.89,2.35-4.01-.57-7.9-2.47-10.94-5.12-1.6-1.38-2.99-2.98-4.13-4.76-.52-.83-1-1.69-1.41-2.59-.07-.17-.14-.34-.22-.52,0-.02.01-.05.02-.06-.4-.58-.77-1.18-1.09-1.81-.14-.25-.3-.5-.44-.74-.04-.07-.06-.14-.07-.21,0,0-.02,0-.04.01-.06.04-.11.08-.17.13-.02.02-.04.06-.05.08-.56.76-1.19,1.44-1.95,1.97-.72.92-1.41,1.89-2.2,2.68-1.57,1.57-3.23,3.03-5.1,4.26-3.77,2.48-8.07,4.16-12.56,4.76-8.91,1.21-17.92-2.07-24.32-8.32-3.37-3.29-5.97-7.39-7.58-11.82,0-.07.01-.13.02-.2.04-.31-.14-.61-.39-.84-.02-.08-.06-.15-.08-.22-.15-.5-.76-.43-.92-.05-.32.06-.6.24-.78.53-.34.56-.67,1.12-1,1.68-.38.61-.61,1.28-.87,1.95-.22.58-.45,1.16-.67,1.74-.04.09-.06.2-.09.3-.39.8-.73,1.62-.98,2.46-.66,2.33-1.22,4.68-1.68,7.06-.91,4.71-1.42,9.5-1.54,14.29-.24,9.68.87,19.46,3.81,28.71,2.77,8.71,6.9,17.08,12.48,24.35,5.39,7.02,11.74,13.16,18.93,18.34,7.13,5.13,15.16,8.97,23.55,11.55-.85.75-.74,2.18,0,2.94.86.89,2.06.69,2.94,0,11.55-9.03,22.89-18.47,35.21-26.45,12.15-7.87,25.42-13.6,39.51-16.96,13.68-3.27,28.16-3.87,42.11-2.35,13.21,1.43,26.19,5.43,38.17,11.13,6.78,3.23,13.18,7.07,19.38,11.3,6,4.12,11.74,8.57,16.65,14.14,1.18,1.35,3.17,1.61,4.81,1.04.39.19.83.27,1.24.19,2.11-.46,4.08-1.49,6.02-2.42,2.01-.96,3.92-2.03,5.81-3.21,3.74-2.33,7.32-4.93,10.74-7.71,6.73-5.48,12.64-11.94,17.73-18.95,11.04-15.23,17.62-33.54,19.07-52.27.85-11.03-.27-22.12-2.51-32.93h.01Z" style="fill:#333;"/></g><path d="M441.5,308.1s0-.12-.01-.18c0-.07-.01-.14-.02-.21-.01-.11-.04-.21-.06-.31.06,1.03.1.98.1.7Z" style="fill:#02c000;"/><path d="M439.01,298.61s0-.02-.01-.04c-.1-.17-.19-.45-.25-.59-.16-.24-.19.07.26.63Z" style="fill:#02c000;"/><path d="M435.61,292.55c-.08-.09-.28-.33-.38-.5,0-.01-.02-.02-.04-.04.14.5.5.73.41.53Z" style="fill:#02c000;"/></g></svg>